<?xml version="1.0" encoding="UTF-8" standalone="no"?>
<!DOCTYPE svg PUBLIC "-//W3C//DTD SVG 1.1//EN"
 "http://www.w3.org/Graphics/SVG/1.1/DTD/svg11.dtd">
<!-- Generated by graphviz version 2.44.0 (20200408.0750)
 -->
<!-- Title: arch_dep Pages: 1 -->
<svg width="447pt" height="321pt"
 viewBox="0.00 0.00 447.05 320.72" xmlns="http://www.w3.org/2000/svg" xmlns:xlink="http://www.w3.org/1999/xlink">
<g id="graph0" class="graph" transform="scale(1 1) rotate(0) translate(4 316.72)">
<title>arch_dep</title>
<polygon fill="white" stroke="transparent" points="-4,4 -4,-316.72 443.05,-316.72 443.05,4 -4,4"/>
<text text-anchor="middle" x="219.53" y="-10" font-family="Times,serif" font-size="20.00">模块依赖</text>
<!-- app -->
<g id="node1" class="node">
<title>app</title>
<polygon fill="orange" stroke="black" points="11.55,-243.22 11.55,-312.22 192.55,-312.22 192.55,-243.22 11.55,-243.22"/>
<text text-anchor="middle" x="102.05" y="-297.02" font-family="Times,serif" font-size="14.00">应用模块</text>
<polyline fill="none" stroke="black" points="11.55,-289.22 192.55,-289.22 "/>
<text text-anchor="middle" x="102.05" y="-274.02" font-family="Times,serif" font-size="14.00">compilation.application</text>
<polyline fill="none" stroke="black" points="11.55,-266.22 192.55,-266.22 "/>
<text text-anchor="middle" x="52.55" y="-251.02" font-family="Times,serif" font-size="14.00">compilation</text>
<polyline fill="none" stroke="black" points="93.55,-243.22 93.55,-266.22 "/>
<text text-anchor="middle" x="143.05" y="-251.02" font-family="Times,serif" font-size="14.00">post_collection</text>
</g>
<!-- domain -->
<g id="node3" class="node">
<title>domain</title>
<polygon fill="lightgreen" stroke="black" points="35.55,-40.22 35.55,-132.22 354.55,-132.22 354.55,-40.22 35.55,-40.22"/>
<text text-anchor="middle" x="195.05" y="-117.02" font-family="Times,serif" font-size="14.00">领域模块</text>
<polyline fill="none" stroke="black" points="35.55,-109.22 354.55,-109.22 "/>
<text text-anchor="middle" x="195.05" y="-94.02" font-family="Times,serif" font-size="14.00">compilation.domain</text>
<polyline fill="none" stroke="black" points="35.55,-86.22 354.55,-86.22 "/>
<text text-anchor="middle" x="167.55" y="-71.02" font-family="Times,serif" font-size="14.00">model</text>
<polyline fill="none" stroke="black" points="35.55,-63.22 299.55,-63.22 "/>
<text text-anchor="middle" x="76.55" y="-48.02" font-family="Times,serif" font-size="14.00">compilation</text>
<polyline fill="none" stroke="black" points="117.55,-40.22 117.55,-63.22 "/>
<text text-anchor="middle" x="167.05" y="-48.02" font-family="Times,serif" font-size="14.00">post_collection</text>
<polyline fill="none" stroke="black" points="216.55,-40.22 216.55,-63.22 "/>
<text text-anchor="middle" x="258.05" y="-48.02" font-family="Times,serif" font-size="14.00">subscription</text>
<polyline fill="none" stroke="black" points="299.55,-40.22 299.55,-86.22 "/>
<text text-anchor="middle" x="327.05" y="-59.52" font-family="Times,serif" font-size="14.00">service</text>
</g>
<!-- app&#45;&gt;domain -->
<g id="edge1" class="edge">
<title>app:c&#45;&gt;domain:c</title>
<path fill="none" stroke="orange" d="M52.05,-242.72C52.05,-160.9 -42.73,-60.29 24.05,-51.79"/>
<polygon fill="orange" stroke="orange" points="24.27,-55.29 34.05,-51.22 23.87,-48.3 24.27,-55.29"/>
</g>
<!-- app&#45;&gt;domain -->
<g id="edge2" class="edge">
<title>app:p&#45;&gt;domain:p</title>
<path fill="none" stroke="orange" d="M143.05,-242.72C143.05,-174.36 61.35,-196.02 35.55,-132.72 20.04,-94.65 6.59,-69.4 35.55,-40.22 44.2,-31.51 131.07,-26.42 158.68,-33.66"/>
<polygon fill="orange" stroke="orange" points="156.78,-36.61 167.05,-39.22 160.65,-30.77 156.78,-36.61"/>
</g>
<!-- infr -->
<g id="node2" class="node">
<title>infr</title>
<polygon fill="lightgrey" stroke="black" points="211.05,-243.22 211.05,-312.22 439.05,-312.22 439.05,-243.22 211.05,-243.22"/>
<text text-anchor="middle" x="325.05" y="-297.02" font-family="Times,serif" font-size="14.00">基础设施模块</text>
<polyline fill="none" stroke="black" points="211.05,-289.22 439.05,-289.22 "/>
<text text-anchor="middle" x="325.05" y="-274.02" font-family="Times,serif" font-size="14.00">compilation.infrastructure</text>
<polyline fill="none" stroke="black" points="211.05,-266.22 439.05,-266.22 "/>
<text text-anchor="middle" x="249.55" y="-251.02" font-family="Times,serif" font-size="14.00">persistence</text>
<polyline fill="none" stroke="black" points="288.05,-243.22 288.05,-266.22 "/>
<text text-anchor="middle" x="326.55" y="-251.02" font-family="Times,serif" font-size="14.00">permission</text>
<polyline fill="none" stroke="black" points="365.05,-243.22 365.05,-266.22 "/>
<text text-anchor="middle" x="402.05" y="-251.02" font-family="Times,serif" font-size="14.00">censorship</text>
</g>
<!-- infr&#45;&gt;domain -->
<g id="edge3" class="edge">
<title>infr:db&#45;&gt;domain:model</title>
<path fill="none" stroke="purple" d="M249.05,-242.72C249.05,-189.25 63.3,-178.12 35.05,-132.72 23.57,-114.26 12.41,-85.78 24.25,-76.93"/>
<polygon fill="purple" stroke="purple" points="25.35,-80.26 34.05,-74.22 23.48,-73.52 25.35,-80.26"/>
</g>
<!-- infr&#45;&gt;domain -->
<g id="edge4" class="edge">
<title>infr:perm&#45;&gt;domain:service</title>
<path fill="none" stroke="purple" d="M327.05,-242.72C327.05,-165.69 426.81,-72.43 366.19,-63.86"/>
<polygon fill="purple" stroke="purple" points="366.25,-60.35 356.05,-63.22 365.81,-67.34 366.25,-60.35"/>
</g>
<!-- infr&#45;&gt;domain -->
<g id="edge5" class="edge">
<title>infr:censor&#45;&gt;domain:service</title>
<path fill="none" stroke="purple" d="M402.05,-242.72C402.05,-164.06 435.21,-71.92 366.45,-63.8"/>
<polygon fill="purple" stroke="purple" points="366.23,-60.28 356.05,-63.22 365.84,-67.27 366.23,-60.28"/>
</g>
</g>
</svg>
