<?xml version="1.0" encoding="UTF-8" standalone="no"?>
<!DOCTYPE svg PUBLIC "-//W3C//DTD SVG 1.1//EN"
 "http://www.w3.org/Graphics/SVG/1.1/DTD/svg11.dtd">
<!-- Generated by graphviz version 2.44.0 (20200408.0750)
 -->
<!-- Title: architecture Pages: 1 -->
<svg 
    width="416pt" height="597pt"
 viewBox="0.00 0.00 416.00 597.19" xmlns="http://www.w3.org/2000/svg" xmlns:xlink="http://www.w3.org/1999/xlink">
<g id="graph0" class="graph" transform="scale(1 1) rotate(0) translate(4 593.19)">
<title>architecture</title>
<polygon fill="white" stroke="transparent" points="-4,4 -4,-593.19 412,-593.19 412,4 -4,4"/>
<text text-anchor="middle" x="204" y="-9.6" font-family="Times,serif" font-size="18.00" fill="gray">一个可能的 DDD 架构</text>
<g id="clust1" class="cluster">
<title>cluster_req</title>
<polygon fill="none" stroke="transparent" points="53,-529.19 53,-581.19 393,-581.19 393,-529.19 53,-529.19"/>
</g>
<g id="clust2" class="cluster">
<title>cluster_entry</title>
<polygon fill="#ccffcc" stroke="black" points="8,-370.19 8,-492.19 400,-492.19 400,-370.19 8,-370.19"/>
<text text-anchor="middle" x="204" y="-472.19" font-family="Times,serif" font-size="20.00">访问适配层</text>
</g>
<g id="clust4" class="cluster">
<title>cluster_domain</title>
<polygon fill="#ffff80" stroke="black" points="53,-191 53,-333.19 395,-333.19 395,-191 53,-191"/>
<text text-anchor="middle" x="224" y="-313.19" font-family="Times,serif" font-size="20.00">应用服务</text>
</g>
<g id="clust5" class="cluster">
<title>cluster_infr</title>
<polygon fill="#ff6600" stroke="black" points="57,-36 57,-154 353,-154 353,-36 57,-36"/>
<text text-anchor="middle" x="205" y="-134" font-family="Times,serif" font-size="20.00">基础设施</text>
</g>
<!-- r1 -->
<g id="node1" class="node">
<title>r1</title>
<ellipse fill="none" stroke="black" cx="109" cy="-555.19" rx="48.19" ry="18"/>
<text text-anchor="middle" x="109" y="-551.49" font-family="Times,serif" font-size="14.00">外部请求</text>
</g>
<!-- a0 -->
<g id="node5" class="node">
<title>a0</title>
<polygon fill="white" stroke="black" points="146.35,-408.74 146.35,-423.65 108.07,-434.19 53.93,-434.19 15.65,-423.65 15.65,-408.74 53.93,-398.19 108.07,-398.19 146.35,-408.74"/>
<text text-anchor="middle" x="81" y="-412.49" font-family="Times,serif" font-size="14.00">HTTP适配器</text>
</g>
<!-- r1&#45;&gt;a0 -->
<g id="edge5" class="edge">
<title>r1&#45;&gt;a0</title>
<path fill="none" stroke="black" d="M105.34,-537.02C100.58,-513.4 92.22,-471.9 86.65,-444.23"/>
<polygon fill="black" stroke="black" points="90.07,-443.48 84.66,-434.37 83.21,-444.86 90.07,-443.48"/>
</g>
<!-- r2 -->
<g id="node2" class="node">
<title>r2</title>
<ellipse fill="none" stroke="black" cx="223" cy="-555.19" rx="48.19" ry="18"/>
<text text-anchor="middle" x="223" y="-551.49" font-family="Times,serif" font-size="14.00">外部请求</text>
</g>
<!-- a1 -->
<g id="node6" class="node">
<title>a1</title>
<polygon fill="white" stroke="black" points="223,-454.19 164,-416.19 223,-378.19 282,-416.19 223,-454.19"/>
<text text-anchor="middle" x="223" y="-419.99" font-family="Times,serif" font-size="14.00">Dubbo</text>
<text text-anchor="middle" x="223" y="-404.99" font-family="Times,serif" font-size="14.00">适配器</text>
</g>
<!-- r2&#45;&gt;a1 -->
<g id="edge6" class="edge">
<title>r2&#45;&gt;a1</title>
<path fill="none" stroke="black" d="M223,-537.02C223,-518.65 223,-489.47 223,-464.39"/>
<polygon fill="black" stroke="black" points="226.5,-464.3 223,-454.3 219.5,-464.3 226.5,-464.3"/>
</g>
<!-- r3 -->
<g id="node3" class="node">
<title>r3</title>
<ellipse fill="none" stroke="black" cx="337" cy="-555.19" rx="48.19" ry="18"/>
<text text-anchor="middle" x="337" y="-551.49" font-family="Times,serif" font-size="14.00">外部请求</text>
</g>
<!-- a2 -->
<g id="node4" class="node">
<title>a2</title>
<polygon fill="white" stroke="black" points="391.5,-434.19 300.5,-434.19 300.5,-398.19 391.5,-398.19 391.5,-434.19"/>
<text text-anchor="middle" x="346" y="-412.49" font-family="Times,serif" font-size="14.00">Thrift适配器</text>
</g>
<!-- r3&#45;&gt;a2 -->
<g id="edge7" class="edge">
<title>r3&#45;&gt;a2</title>
<path fill="none" stroke="black" d="M338.18,-537.02C339.7,-513.5 342.37,-472.27 344.16,-444.6"/>
<polygon fill="black" stroke="black" points="347.67,-444.57 344.82,-434.37 340.68,-444.12 347.67,-444.57"/>
</g>
<!-- repo -->
<g id="node8" class="node">
<title>repo</title>
<path fill="white" stroke="black" d="M386.5,-270.82C386.5,-273.73 364.76,-276.1 338,-276.1 311.24,-276.1 289.5,-273.73 289.5,-270.82 289.5,-270.82 289.5,-223.37 289.5,-223.37 289.5,-220.46 311.24,-218.1 338,-218.1 364.76,-218.1 386.5,-220.46 386.5,-223.37 386.5,-223.37 386.5,-270.82 386.5,-270.82"/>
<path fill="none" stroke="black" d="M386.5,-270.82C386.5,-267.91 364.76,-265.55 338,-265.55 311.24,-265.55 289.5,-267.91 289.5,-270.82"/>
<text text-anchor="middle" x="338" y="-243.4" font-family="Times,serif" font-size="14.00">资源库(Repo)</text>
</g>
<!-- a2&#45;&gt;repo -->
<g id="edge3" class="edge">
<title>a2&#45;&gt;repo</title>
<path fill="none" stroke="black" d="M345.14,-398.1C344.49,-384.35 343.54,-364.29 342.55,-343.24"/>
<polygon fill="black" stroke="black" points="346.04,-343.01 342.07,-333.19 339.05,-343.35 346.04,-343.01"/>
</g>
<!-- d_ser -->
<g id="node9" class="node">
<title>d_ser</title>
<ellipse fill="white" stroke="black" cx="109" cy="-247.1" rx="48.19" ry="18"/>
<text text-anchor="middle" x="109" y="-243.4" font-family="Times,serif" font-size="14.00">领域服务</text>
</g>
<!-- a0&#45;&gt;d_ser -->
<g id="edge1" class="edge">
<title>a0&#45;&gt;d_ser</title>
<path fill="none" stroke="black" d="M84,-398.1C86.27,-384.35 89.59,-364.29 93.08,-343.24"/>
<polygon fill="black" stroke="black" points="96.56,-343.63 94.74,-333.19 89.66,-342.48 96.56,-343.63"/>
</g>
<!-- o -->
<g id="node7" class="node">
<title>o</title>
<ellipse fill="white" stroke="black" cx="223" cy="-247.1" rx="48.19" ry="48.19"/>
<text text-anchor="middle" x="223" y="-243.4" font-family="Times,serif" font-size="14.00">领域模型</text>
</g>
<!-- a1&#45;&gt;o -->
<g id="edge2" class="edge">
<title>a1&#45;&gt;o</title>
<path fill="none" stroke="black" d="M223,-377.82C223,-367.37 223,-355.57 223,-343.44"/>
<polygon fill="black" stroke="black" points="226.5,-343.19 223,-333.19 219.5,-343.19 226.5,-343.19"/>
</g>
<!-- mq -->
<g id="node11" class="node">
<title>mq</title>
<polygon fill="white" stroke="black" points="255,-92 179,-92 179,-68 255,-68 267,-80 255,-92"/>
<text text-anchor="middle" x="223" y="-76.3" font-family="Times,serif" font-size="14.00">消息中间件</text>
</g>
<!-- o&#45;&gt;mq -->
<g id="edge4" class="edge">
<title>o&#45;&gt;mq</title>
<path fill="none" stroke="black" d="M223,-191C223,-182.41 223,-173.39 223,-164.35"/>
<polygon fill="black" stroke="black" points="226.5,-164 223,-154 219.5,-164 226.5,-164"/>
</g>
<!-- db -->
<g id="node10" class="node">
<title>db</title>
<path fill="white" stroke="black" d="M344.5,-109.45C344.5,-113.07 331.28,-116 315,-116 298.72,-116 285.5,-113.07 285.5,-109.45 285.5,-109.45 285.5,-50.55 285.5,-50.55 285.5,-46.93 298.72,-44 315,-44 331.28,-44 344.5,-46.93 344.5,-50.55 344.5,-50.55 344.5,-109.45 344.5,-109.45"/>
<path fill="none" stroke="black" d="M344.5,-109.45C344.5,-105.84 331.28,-102.91 315,-102.91 298.72,-102.91 285.5,-105.84 285.5,-109.45"/>
<text text-anchor="middle" x="315" y="-76.3" font-family="Times,serif" font-size="14.00">数据库</text>
</g>
<!-- ex_ser -->
<g id="node12" class="node">
<title>ex_ser</title>
<ellipse fill="white" stroke="black" cx="113" cy="-80" rx="48.19" ry="18"/>
<text text-anchor="middle" x="113" y="-76.3" font-family="Times,serif" font-size="14.00">外部服务</text>
</g>
</g>
</svg>
