<?xml version="1.0" encoding="UTF-8" standalone="no"?>
<!DOCTYPE svg PUBLIC "-//W3C//DTD SVG 1.1//EN"
 "http://www.w3.org/Graphics/SVG/1.1/DTD/svg11.dtd">
<!-- Generated by graphviz version 2.44.0 (20200408.0750)
 -->
<!-- Title: collection_post Pages: 1 -->
<svg width="1777pt" height="1082pt"
 viewBox="0.00 0.00 1776.51 1082.00" xmlns="http://www.w3.org/2000/svg" xmlns:xlink="http://www.w3.org/1999/xlink">
<g id="graph0" class="graph" transform="scale(1 1) rotate(0) translate(4 1078)">
<title>collection_post</title>
<polygon fill="white" stroke="transparent" points="-4,4 -4,-1078 1772.51,-1078 1772.51,4 -4,4"/>
<text text-anchor="middle" x="884.26" y="-13" font-family="Times,serif" font-size="30.00">合集 Post操作语义</text>
<g id="clust1" class="cluster">
<title>cluster_checktype</title>
<polygon fill="none" stroke="black" points="72.51,-49 72.51,-1059.5 370.51,-1059.5 370.51,-49 72.51,-49"/>
<text text-anchor="middle" x="221.51" y="-1039.5" font-family="Times,serif" font-size="20.00">合集和Post 类型匹配?</text>
</g>
<g id="clust2" class="cluster">
<title>cluster_add</title>
<polygon fill="none" stroke="black" points="378.51,-393.5 378.51,-1066 706.51,-1066 706.51,-393.5 378.51,-393.5"/>
<text text-anchor="middle" x="542.51" y="-1046" font-family="Times,serif" font-size="20.00">添加 Post</text>
</g>
<g id="clust3" class="cluster">
<title>cluster_remove</title>
<polygon fill="none" stroke="black" points="714.51,-633 714.51,-1066 956.51,-1066 956.51,-633 714.51,-633"/>
<text text-anchor="middle" x="835.51" y="-1046" font-family="Times,serif" font-size="20.00">删除 Post</text>
</g>
<g id="clust4" class="cluster">
<title>cluster_invalid</title>
<polygon fill="none" stroke="black" points="964.51,-756 964.51,-1066 1166.51,-1066 1166.51,-756 964.51,-756"/>
<text text-anchor="middle" x="1065.51" y="-1046" font-family="Times,serif" font-size="20.00">同步删除无效 Post</text>
</g>
<g id="clust5" class="cluster">
<title>cluster_top</title>
<polygon fill="none" stroke="black" points="1174.51,-510 1174.51,-1066 1510.51,-1066 1510.51,-510 1174.51,-510"/>
<text text-anchor="middle" x="1342.51" y="-1046" font-family="Times,serif" font-size="20.00">置顶</text>
</g>
<g id="clust7" class="cluster">
<title>cluster_untop</title>
<polygon fill="none" stroke="black" points="1518.51,-633 1518.51,-1066 1760.51,-1066 1760.51,-633 1518.51,-633"/>
<text text-anchor="middle" x="1639.51" y="-1046" font-family="Times,serif" font-size="20.00">取消置顶</text>
</g>
<!-- startC -->
<g id="node1" class="node">
<title>startC</title>
<path fill="none" stroke="black" d="M222.85,-1021.5C222.85,-1021.5 184.18,-1021.5 184.18,-1021.5 180.35,-1021.5 176.51,-1017.67 176.51,-1013.83 176.51,-1013.83 176.51,-1006.17 176.51,-1006.17 176.51,-1002.33 180.35,-998.5 184.18,-998.5 184.18,-998.5 222.85,-998.5 222.85,-998.5 226.68,-998.5 230.51,-1002.33 230.51,-1006.17 230.51,-1006.17 230.51,-1013.83 230.51,-1013.83 230.51,-1017.67 226.68,-1021.5 222.85,-1021.5"/>
<text text-anchor="middle" x="203.51" y="-1006.3" font-family="Times,serif" font-size="14.00">开始</text>
</g>
<!-- in -->
<g id="node7" class="node">
<title>in</title>
<polygon fill="none" stroke="black" points="203.51,-941 81.26,-905 203.51,-869 325.77,-905 203.51,-941"/>
<text text-anchor="middle" x="203.51" y="-901.3" font-family="Times,serif" font-size="14.00">合集里已经包含该 Post?</text>
</g>
<!-- startC&#45;&gt;in -->
<g id="edge1" class="edge">
<title>startC&#45;&gt;in</title>
<path fill="none" stroke="blue" d="M203.51,-998.37C203.51,-987.19 203.51,-968.86 203.51,-951.46"/>
<polygon fill="blue" stroke="blue" points="207.02,-951.39 203.51,-941.39 200.02,-951.39 207.02,-951.39"/>
</g>
<!-- failC -->
<g id="node2" class="node">
<title>failC</title>
<path fill="none" stroke="black" d="M144.35,-80C144.35,-80 100.68,-80 100.68,-80 96.85,-80 93.01,-76.17 93.01,-72.33 93.01,-72.33 93.01,-64.67 93.01,-64.67 93.01,-60.83 96.85,-57 100.68,-57 100.68,-57 144.35,-57 144.35,-57 148.18,-57 152.01,-60.83 152.01,-64.67 152.01,-64.67 152.01,-72.33 152.01,-72.33 152.01,-76.17 148.18,-80 144.35,-80"/>
<text text-anchor="middle" x="122.51" y="-64.8" font-family="Times,serif" font-size="14.00">不匹配</text>
</g>
<!-- okC -->
<g id="node3" class="node">
<title>okC</title>
<path fill="none" stroke="black" d="M281.85,-80C281.85,-80 243.18,-80 243.18,-80 239.35,-80 235.51,-76.17 235.51,-72.33 235.51,-72.33 235.51,-64.67 235.51,-64.67 235.51,-60.83 239.35,-57 243.18,-57 243.18,-57 281.85,-57 281.85,-57 285.68,-57 289.51,-60.83 289.51,-64.67 289.51,-64.67 289.51,-72.33 289.51,-72.33 289.51,-76.17 285.68,-80 281.85,-80"/>
<text text-anchor="middle" x="262.51" y="-64.8" font-family="Times,serif" font-size="14.00">匹配</text>
</g>
<!-- ctype -->
<g id="node4" class="node">
<title>ctype</title>
<polygon fill="none" stroke="black" points="232.51,-326 141.44,-290 232.51,-254 323.59,-290 232.51,-326"/>
<text text-anchor="middle" x="232.51" y="-286.3" font-family="Times,serif" font-size="14.00">合集是视频类型?</text>
</g>
<!-- ptype -->
<g id="node6" class="node">
<title>ptype</title>
<polygon fill="none" stroke="black" points="232.51,-203 152.83,-167 232.51,-131 312.2,-167 232.51,-203"/>
<text text-anchor="middle" x="232.51" y="-163.3" font-family="Times,serif" font-size="14.00"> Post包含视频?</text>
</g>
<!-- ctype&#45;&gt;ptype -->
<g id="edge8" class="edge">
<title>ctype&#45;&gt;ptype</title>
<path fill="none" stroke="blue" d="M232.51,-253.68C232.51,-241.13 232.51,-226.82 232.51,-213.54"/>
<polygon fill="blue" stroke="blue" points="236.02,-213.16 232.51,-203.16 229.02,-213.16 236.02,-213.16"/>
<text text-anchor="middle" x="242.01" y="-224.8" font-family="Times,serif" font-size="14.00">yes</text>
</g>
<!-- ctype&#45;&gt;ptype -->
<g id="edge10" class="edge">
<title>ctype:e&#45;&gt;ptype</title>
<path fill="none" stroke="#008b00" d="M324.51,-290C370.84,-290 311.15,-233.23 268.53,-197.14"/>
<polygon fill="#008b00" stroke="#008b00" points="270.71,-194.4 260.8,-190.66 266.22,-199.77 270.71,-194.4"/>
<text text-anchor="middle" x="314.51" y="-224.8" font-family="Times,serif" font-size="14.00">no</text>
</g>
<!-- live -->
<g id="node5" class="node">
<title>live</title>
<polygon fill="none" stroke="black" points="223.51,-449 143.83,-413 223.51,-377 303.2,-413 223.51,-449"/>
<text text-anchor="middle" x="223.51" y="-409.3" font-family="Times,serif" font-size="14.00"> Post是直播贴?</text>
</g>
<!-- live&#45;&gt;failC -->
<g id="edge13" class="edge">
<title>live:w&#45;&gt;failC</title>
<path fill="none" stroke="red" d="M142.51,-413C110.05,-413 118.3,-165.34 121.53,-90.6"/>
<polygon fill="red" stroke="red" points="125.04,-90.3 121.99,-80.16 118.05,-89.99 125.04,-90.3"/>
<text text-anchor="middle" x="127.01" y="-224.8" font-family="Times,serif" font-size="14.00">yes</text>
</g>
<!-- live&#45;&gt;ctype -->
<g id="edge7" class="edge">
<title>live&#45;&gt;ctype</title>
<path fill="none" stroke="blue" d="M226.05,-377.97C227.03,-364.7 228.18,-349.31 229.23,-335.19"/>
<polygon fill="blue" stroke="blue" points="232.72,-335.42 229.97,-325.19 225.74,-334.9 232.72,-335.42"/>
<text text-anchor="middle" x="235.51" y="-347.8" font-family="Times,serif" font-size="14.00">no</text>
</g>
<!-- ptype&#45;&gt;failC -->
<g id="edge14" class="edge">
<title>ptype:w&#45;&gt;failC</title>
<path fill="none" stroke="red" d="M151.51,-167C143.57,-167 132.46,-118.8 126.56,-90.18"/>
<polygon fill="red" stroke="red" points="129.98,-89.42 124.58,-80.31 123.12,-90.8 129.98,-89.42"/>
<text text-anchor="middle" x="141.51" y="-101.8" font-family="Times,serif" font-size="14.00">else</text>
</g>
<!-- ptype&#45;&gt;okC -->
<g id="edge9" class="edge">
<title>ptype&#45;&gt;okC</title>
<path fill="none" stroke="blue" d="M242.09,-135.2C246.64,-120.55 251.97,-103.42 256.04,-90.32"/>
<polygon fill="blue" stroke="blue" points="259.5,-91 259.12,-80.41 252.81,-88.92 259.5,-91"/>
<text text-anchor="middle" x="263.01" y="-101.8" font-family="Times,serif" font-size="14.00">yes</text>
</g>
<!-- ptype&#45;&gt;okC -->
<g id="edge11" class="edge">
<title>ptype:e&#45;&gt;okC</title>
<path fill="none" stroke="#008b00" d="M313.51,-167C348.96,-167 306.23,-115.78 280.03,-87.59"/>
<polygon fill="#008b00" stroke="#008b00" points="282.56,-85.17 273.15,-80.31 277.47,-89.98 282.56,-85.17"/>
<text text-anchor="middle" x="308.51" y="-101.8" font-family="Times,serif" font-size="14.00">no</text>
</g>
<!-- max -->
<g id="node8" class="node">
<title>max</title>
<polygon fill="none" stroke="black" points="203.51,-818 81.26,-782 203.51,-746 325.77,-782 203.51,-818"/>
<text text-anchor="middle" x="203.51" y="-778.3" font-family="Times,serif" font-size="14.00">合集已包含 500 个帖子?</text>
</g>
<!-- in&#45;&gt;max -->
<g id="edge2" class="edge">
<title>in&#45;&gt;max</title>
<path fill="none" stroke="blue" d="M203.51,-868.68C203.51,-856.13 203.51,-841.82 203.51,-828.54"/>
<polygon fill="blue" stroke="blue" points="207.02,-828.16 203.51,-818.16 200.02,-828.16 207.02,-828.16"/>
<text text-anchor="middle" x="210.51" y="-839.8" font-family="Times,serif" font-size="14.00">no</text>
</g>
<!-- max&#45;&gt;failC -->
<g id="edge12" class="edge">
<title>max:w&#45;&gt;failC</title>
<path fill="none" stroke="red" d="M80.51,-782C-110.54,-782 98.51,-543.56 98.51,-352.5 98.51,-352.5 98.51,-352.5 98.51,-166 98.51,-139.05 107.44,-109.09 114.4,-89.81"/>
<polygon fill="red" stroke="red" points="117.74,-90.87 118,-80.28 111.19,-88.4 117.74,-90.87"/>
<text text-anchor="middle" x="106.01" y="-409.3" font-family="Times,serif" font-size="14.00">yes</text>
</g>
<!-- empty -->
<g id="node9" class="node">
<title>empty</title>
<polygon fill="none" stroke="black" points="203.51,-695 148.08,-659 203.51,-623 258.95,-659 203.51,-695"/>
<text text-anchor="middle" x="203.51" y="-655.3" font-family="Times,serif" font-size="14.00">合集为空</text>
</g>
<!-- max&#45;&gt;empty -->
<g id="edge3" class="edge">
<title>max&#45;&gt;empty</title>
<path fill="none" stroke="blue" d="M203.51,-745.68C203.51,-733.13 203.51,-718.82 203.51,-705.54"/>
<polygon fill="blue" stroke="blue" points="207.02,-705.16 203.51,-695.16 200.02,-705.16 207.02,-705.16"/>
<text text-anchor="middle" x="210.51" y="-716.8" font-family="Times,serif" font-size="14.00">no</text>
</g>
<!-- empty&#45;&gt;live -->
<g id="edge5" class="edge">
<title>empty&#45;&gt;live</title>
<path fill="none" stroke="blue" d="M179.13,-638.69C161.32,-622.92 138.6,-598.9 128.51,-572 117.28,-542.04 115.54,-529.25 128.51,-500 139.41,-475.44 161.16,-454.92 181.11,-440.09"/>
<polygon fill="blue" stroke="blue" points="183.4,-442.75 189.51,-434.08 179.33,-437.05 183.4,-442.75"/>
<text text-anchor="middle" x="135.51" y="-532.3" font-family="Times,serif" font-size="14.00">no</text>
</g>
<!-- st -->
<g id="node10" class="node">
<title>st</title>
<polygon fill="none" stroke="black" points="362.01,-554 151.01,-554 151.01,-518 362.01,-518 362.01,-554"/>
<text text-anchor="middle" x="256.51" y="-532.3" font-family="Times,serif" font-size="14.00">使用要添加的Post决定合集类型</text>
</g>
<!-- empty&#45;&gt;st -->
<g id="edge4" class="edge">
<title>empty&#45;&gt;st</title>
<path fill="none" stroke="blue" d="M215.54,-630.54C224.32,-610.5 236.16,-583.48 244.85,-563.63"/>
<polygon fill="blue" stroke="blue" points="248.15,-564.82 248.96,-554.26 241.74,-562.01 248.15,-564.82"/>
<text text-anchor="middle" x="242.01" y="-593.8" font-family="Times,serif" font-size="14.00">yes</text>
</g>
<!-- st&#45;&gt;live -->
<g id="edge6" class="edge">
<title>st&#45;&gt;live</title>
<path fill="none" stroke="blue" d="M251.86,-517.92C247.44,-501.72 240.63,-476.75 234.79,-455.35"/>
<polygon fill="blue" stroke="blue" points="238.11,-454.22 232.1,-445.5 231.36,-456.06 238.11,-454.22"/>
<text text-anchor="middle" x="251.01" y="-470.8" font-family="Times,serif" font-size="14.00">yes</text>
</g>
<!-- startA -->
<g id="node11" class="node">
<title>startA</title>
<path fill="none" stroke="black" d="M614.51,-1028C614.51,-1028 584.51,-1028 584.51,-1028 578.51,-1028 572.51,-1022 572.51,-1016 572.51,-1016 572.51,-1004 572.51,-1004 572.51,-998 578.51,-992 584.51,-992 584.51,-992 614.51,-992 614.51,-992 620.51,-992 626.51,-998 626.51,-1004 626.51,-1004 626.51,-1016 626.51,-1016 626.51,-1022 620.51,-1028 614.51,-1028"/>
<text text-anchor="middle" x="599.51" y="-1006.3" font-family="Times,serif" font-size="14.00">开始</text>
</g>
<!-- existA -->
<g id="node12" class="node">
<title>existA</title>
<polygon fill="none" stroke="black" points="599.51,-941 544.08,-905 599.51,-869 654.95,-905 599.51,-941"/>
<text text-anchor="middle" x="599.51" y="-901.3" font-family="Times,serif" font-size="14.00">合集存在</text>
</g>
<!-- startA&#45;&gt;existA -->
<g id="edge15" class="edge">
<title>startA&#45;&gt;existA</title>
<path fill="none" stroke="blue" d="M599.51,-991.99C599.51,-980.96 599.51,-966.01 599.51,-951.68"/>
<polygon fill="blue" stroke="blue" points="603.02,-951.41 599.51,-941.41 596.02,-951.41 603.02,-951.41"/>
<text text-anchor="middle" x="609.01" y="-962.8" font-family="Times,serif" font-size="14.00">yes</text>
</g>
<!-- access -->
<g id="node13" class="node">
<title>access</title>
<polygon fill="none" stroke="black" points="523.51,-818 386.41,-782 523.51,-746 660.62,-782 523.51,-818"/>
<text text-anchor="middle" x="523.51" y="-778.3" font-family="Times,serif" font-size="14.00">Author拥有合集且拥有Post?</text>
</g>
<!-- existA&#45;&gt;access -->
<g id="edge16" class="edge">
<title>existA&#45;&gt;access</title>
<path fill="none" stroke="blue" d="M583.77,-878.93C573.41,-862.44 559.64,-840.52 547.88,-821.8"/>
<polygon fill="blue" stroke="blue" points="550.75,-819.78 542.47,-813.18 544.82,-823.51 550.75,-819.78"/>
<text text-anchor="middle" x="575.01" y="-839.8" font-family="Times,serif" font-size="14.00">yes</text>
</g>
<!-- fail -->
<g id="node17" class="node">
<title>fail</title>
<path fill="none" stroke="black" d="M674.85,-424.5C674.85,-424.5 636.18,-424.5 636.18,-424.5 632.35,-424.5 628.51,-420.67 628.51,-416.83 628.51,-416.83 628.51,-409.17 628.51,-409.17 628.51,-405.33 632.35,-401.5 636.18,-401.5 636.18,-401.5 674.85,-401.5 674.85,-401.5 678.68,-401.5 682.51,-405.33 682.51,-409.17 682.51,-409.17 682.51,-416.83 682.51,-416.83 682.51,-420.67 678.68,-424.5 674.85,-424.5"/>
<text text-anchor="middle" x="655.51" y="-409.3" font-family="Times,serif" font-size="14.00">失败</text>
</g>
<!-- existA&#45;&gt;fail -->
<g id="edge20" class="edge">
<title>existA:e&#45;&gt;fail</title>
<path fill="none" stroke="red" d="M655.51,-905C694.68,-905 664.66,-856.86 669.51,-818 682.12,-717.1 695.25,-691.46 688.51,-590 685.84,-549.73 682.2,-539.95 676.51,-500 674.42,-485.31 674.78,-481.47 671.51,-467 669.06,-456.12 665.55,-444.22 662.43,-434.45"/>
<polygon fill="red" stroke="red" points="665.73,-433.25 659.29,-424.84 659.07,-435.43 665.73,-433.25"/>
<text text-anchor="middle" x="698.51" y="-655.3" font-family="Times,serif" font-size="14.00"> no</text>
</g>
<!-- occupied -->
<g id="node15" class="node">
<title>occupied</title>
<polygon fill="none" stroke="black" points="513.51,-695 402.15,-659 513.51,-623 624.88,-659 513.51,-695"/>
<text text-anchor="middle" x="513.51" y="-655.3" font-family="Times,serif" font-size="14.00"> Post已加入其它合集?</text>
</g>
<!-- access&#45;&gt;occupied -->
<g id="edge17" class="edge">
<title>access&#45;&gt;occupied</title>
<path fill="none" stroke="blue" d="M520.68,-746.65C519.6,-733.62 518.36,-718.59 517.21,-704.74"/>
<polygon fill="blue" stroke="blue" points="520.67,-704.11 516.36,-694.44 513.7,-704.69 520.67,-704.11"/>
<text text-anchor="middle" x="528.01" y="-716.8" font-family="Times,serif" font-size="14.00">yes</text>
</g>
<!-- access&#45;&gt;fail -->
<g id="edge21" class="edge">
<title>access:e&#45;&gt;fail</title>
<path fill="none" stroke="red" d="M661.51,-782C677.52,-782 661.05,-762 660.51,-746 659.76,-723.33 658.96,-717.68 658.51,-695 657.89,-663.01 654.83,-654.79 658.51,-623 661.2,-599.87 667.83,-595.13 670.51,-572 674.2,-540.21 673.27,-531.88 670.51,-500 668.56,-477.46 663.79,-451.96 660.14,-434.62"/>
<polygon fill="red" stroke="red" points="663.49,-433.55 657.95,-424.51 656.65,-435.03 663.49,-433.55"/>
<text text-anchor="middle" x="675.51" y="-593.8" font-family="Times,serif" font-size="14.00"> no</text>
</g>
<!-- type -->
<g id="node14" class="node">
<title>type</title>
<polygon fill="none" stroke="black" points="495.51,-572 386.62,-536 495.51,-500 604.41,-536 495.51,-572"/>
<text text-anchor="middle" x="495.51" y="-532.3" font-family="Times,serif" font-size="14.00">合集和Post类型匹配?</text>
</g>
<!-- success -->
<g id="node16" class="node">
<title>success</title>
<path fill="none" stroke="black" d="M514.85,-424.5C514.85,-424.5 476.18,-424.5 476.18,-424.5 472.35,-424.5 468.51,-420.67 468.51,-416.83 468.51,-416.83 468.51,-409.17 468.51,-409.17 468.51,-405.33 472.35,-401.5 476.18,-401.5 476.18,-401.5 514.85,-401.5 514.85,-401.5 518.68,-401.5 522.51,-405.33 522.51,-409.17 522.51,-409.17 522.51,-416.83 522.51,-416.83 522.51,-420.67 518.68,-424.5 514.85,-424.5"/>
<text text-anchor="middle" x="495.51" y="-409.3" font-family="Times,serif" font-size="14.00">成功</text>
</g>
<!-- type&#45;&gt;success -->
<g id="edge19" class="edge">
<title>type&#45;&gt;success</title>
<path fill="none" stroke="blue" d="M495.51,-499.68C495.51,-478.63 495.51,-452.65 495.51,-434.84"/>
<polygon fill="blue" stroke="blue" points="499.02,-434.7 495.51,-424.7 492.02,-434.7 499.02,-434.7"/>
<text text-anchor="middle" x="505.01" y="-470.8" font-family="Times,serif" font-size="14.00">yes</text>
</g>
<!-- type&#45;&gt;fail -->
<g id="edge23" class="edge">
<title>type:e&#45;&gt;fail</title>
<path fill="none" stroke="red" d="M605.51,-536C621.08,-536 611.5,-481.35 617.51,-467 622.73,-454.56 631.32,-442.23 639.01,-432.59"/>
<polygon fill="red" stroke="red" points="641.72,-434.8 645.44,-424.88 636.35,-430.32 641.72,-434.8"/>
<text text-anchor="middle" x="626.51" y="-470.8" font-family="Times,serif" font-size="14.00"> no</text>
</g>
<!-- occupied&#45;&gt;type -->
<g id="edge18" class="edge">
<title>occupied&#45;&gt;type</title>
<path fill="none" stroke="blue" d="M508.5,-624.29C506.49,-610.79 504.15,-595.05 502.01,-580.69"/>
<polygon fill="blue" stroke="blue" points="505.44,-579.9 500.5,-570.52 498.51,-580.93 505.44,-579.9"/>
<text text-anchor="middle" x="515.01" y="-593.8" font-family="Times,serif" font-size="14.00">yes</text>
</g>
<!-- occupied&#45;&gt;fail -->
<g id="edge22" class="edge">
<title>occupied:e&#45;&gt;fail</title>
<path fill="none" stroke="red" d="M625.51,-659C636.79,-659 649.8,-493.45 654.07,-434.52"/>
<polygon fill="red" stroke="red" points="657.57,-434.75 654.79,-424.53 650.58,-434.25 657.57,-434.75"/>
<text text-anchor="middle" x="657.51" y="-532.3" font-family="Times,serif" font-size="14.00"> no</text>
</g>
<!-- startR -->
<g id="node18" class="node">
<title>startR</title>
<path fill="none" stroke="black" d="M842.51,-1028C842.51,-1028 812.51,-1028 812.51,-1028 806.51,-1028 800.51,-1022 800.51,-1016 800.51,-1016 800.51,-1004 800.51,-1004 800.51,-998 806.51,-992 812.51,-992 812.51,-992 842.51,-992 842.51,-992 848.51,-992 854.51,-998 854.51,-1004 854.51,-1004 854.51,-1016 854.51,-1016 854.51,-1022 848.51,-1028 842.51,-1028"/>
<text text-anchor="middle" x="827.51" y="-1006.3" font-family="Times,serif" font-size="14.00">开始</text>
</g>
<!-- existR -->
<g id="node21" class="node">
<title>existR</title>
<polygon fill="none" stroke="black" points="827.51,-941 772.08,-905 827.51,-869 882.95,-905 827.51,-941"/>
<text text-anchor="middle" x="827.51" y="-901.3" font-family="Times,serif" font-size="14.00">合集存在</text>
</g>
<!-- startR&#45;&gt;existR -->
<g id="edge24" class="edge">
<title>startR&#45;&gt;existR</title>
<path fill="none" stroke="blue" d="M827.51,-991.99C827.51,-980.96 827.51,-966.01 827.51,-951.68"/>
<polygon fill="blue" stroke="blue" points="831.02,-951.41 827.51,-941.41 824.02,-951.41 831.02,-951.41"/>
</g>
<!-- delR -->
<g id="node19" class="node">
<title>delR</title>
<path fill="none" stroke="black" d="M899.51,-677C899.51,-677 821.51,-677 821.51,-677 815.51,-677 809.51,-671 809.51,-665 809.51,-665 809.51,-653 809.51,-653 809.51,-647 815.51,-641 821.51,-641 821.51,-641 899.51,-641 899.51,-641 905.51,-641 911.51,-647 911.51,-653 911.51,-653 911.51,-665 911.51,-665 911.51,-671 905.51,-677 899.51,-677"/>
<text text-anchor="middle" x="860.51" y="-655.3" font-family="Times,serif" font-size="14.00">从合集中删除</text>
</g>
<!-- failR -->
<g id="node20" class="node">
<title>failR</title>
<path fill="none" stroke="black" d="M772.51,-677C772.51,-677 742.51,-677 742.51,-677 736.51,-677 730.51,-671 730.51,-665 730.51,-665 730.51,-653 730.51,-653 730.51,-647 736.51,-641 742.51,-641 742.51,-641 772.51,-641 772.51,-641 778.51,-641 784.51,-647 784.51,-653 784.51,-653 784.51,-665 784.51,-665 784.51,-671 778.51,-677 772.51,-677"/>
<text text-anchor="middle" x="757.51" y="-655.3" font-family="Times,serif" font-size="14.00">失败</text>
</g>
<!-- existR&#45;&gt;failR -->
<g id="edge27" class="edge">
<title>existR:w&#45;&gt;failR</title>
<path fill="none" stroke="red" d="M771.51,-905C684.95,-905 726.98,-750.66 748,-686.98"/>
<polygon fill="red" stroke="red" points="751.41,-687.82 751.29,-677.23 744.78,-685.58 751.41,-687.82"/>
<text text-anchor="middle" x="737.51" y="-778.3" font-family="Times,serif" font-size="14.00">no</text>
</g>
<!-- accessR -->
<g id="node22" class="node">
<title>accessR</title>
<polygon fill="none" stroke="black" points="860.51,-818 772.41,-782 860.51,-746 948.62,-782 860.51,-818"/>
<text text-anchor="middle" x="860.51" y="-778.3" font-family="Times,serif" font-size="14.00">Author拥有合集?</text>
</g>
<!-- existR&#45;&gt;accessR -->
<g id="edge25" class="edge">
<title>existR&#45;&gt;accessR</title>
<path fill="none" stroke="blue" d="M835.67,-874.09C839.75,-859.14 844.75,-840.8 849.19,-824.51"/>
<polygon fill="blue" stroke="blue" points="852.62,-825.25 851.87,-814.68 845.87,-823.41 852.62,-825.25"/>
<text text-anchor="middle" x="855.01" y="-839.8" font-family="Times,serif" font-size="14.00">yes</text>
</g>
<!-- accessR&#45;&gt;delR -->
<g id="edge26" class="edge">
<title>accessR&#45;&gt;delR</title>
<path fill="none" stroke="blue" d="M860.51,-745.68C860.51,-726.96 860.51,-704.33 860.51,-687.03"/>
<polygon fill="blue" stroke="blue" points="864.02,-687.03 860.51,-677.03 857.02,-687.03 864.02,-687.03"/>
<text text-anchor="middle" x="870.01" y="-716.8" font-family="Times,serif" font-size="14.00">yes</text>
</g>
<!-- accessR&#45;&gt;failR -->
<g id="edge28" class="edge">
<title>accessR:w&#45;&gt;failR</title>
<path fill="none" stroke="red" d="M771.51,-782C762.07,-782 758.99,-723.57 757.99,-687.58"/>
<polygon fill="red" stroke="red" points="761.48,-687.13 757.75,-677.22 754.49,-687.3 761.48,-687.13"/>
<text text-anchor="middle" x="766.51" y="-716.8" font-family="Times,serif" font-size="14.00">no</text>
</g>
<!-- startI -->
<g id="node23" class="node">
<title>startI</title>
<path fill="none" stroke="black" d="M1080.51,-1028C1080.51,-1028 1050.51,-1028 1050.51,-1028 1044.51,-1028 1038.51,-1022 1038.51,-1016 1038.51,-1016 1038.51,-1004 1038.51,-1004 1038.51,-998 1044.51,-992 1050.51,-992 1050.51,-992 1080.51,-992 1080.51,-992 1086.51,-992 1092.51,-998 1092.51,-1004 1092.51,-1004 1092.51,-1016 1092.51,-1016 1092.51,-1022 1086.51,-1028 1080.51,-1028"/>
<text text-anchor="middle" x="1065.51" y="-1006.3" font-family="Times,serif" font-size="14.00">开始</text>
</g>
<!-- find -->
<g id="node24" class="node">
<title>find</title>
<polygon fill="none" stroke="black" points="1153.51,-923 977.51,-923 977.51,-887 1153.51,-887 1153.51,-923"/>
<text text-anchor="middle" x="1065.51" y="-901.3" font-family="Times,serif" font-size="14.00">找到这些 Post 对应的合集</text>
</g>
<!-- startI&#45;&gt;find -->
<g id="edge29" class="edge">
<title>startI&#45;&gt;find</title>
<path fill="none" stroke="blue" d="M1065.51,-991.99C1065.51,-976.04 1065.51,-951.91 1065.51,-933.27"/>
<polygon fill="blue" stroke="blue" points="1069.02,-933.03 1065.51,-923.03 1062.02,-933.03 1069.02,-933.03"/>
</g>
<!-- removeI -->
<g id="node25" class="node">
<title>removeI</title>
<polygon fill="none" stroke="black" points="1158.51,-800 972.51,-800 972.51,-764 1158.51,-764 1158.51,-800"/>
<text text-anchor="middle" x="1065.51" y="-778.3" font-family="Times,serif" font-size="14.00">从这些合集中移除这些 Post</text>
</g>
<!-- find&#45;&gt;removeI -->
<g id="edge30" class="edge">
<title>find&#45;&gt;removeI</title>
<path fill="none" stroke="blue" d="M1065.51,-886.92C1065.51,-867.04 1065.51,-833.92 1065.51,-810.42"/>
<polygon fill="blue" stroke="blue" points="1069.02,-810.38 1065.51,-800.38 1062.02,-810.38 1069.02,-810.38"/>
</g>
<!-- startT -->
<g id="node26" class="node">
<title>startT</title>
<path fill="none" stroke="black" d="M1299.51,-1028C1299.51,-1028 1269.51,-1028 1269.51,-1028 1263.51,-1028 1257.51,-1022 1257.51,-1016 1257.51,-1016 1257.51,-1004 1257.51,-1004 1257.51,-998 1263.51,-992 1269.51,-992 1269.51,-992 1299.51,-992 1299.51,-992 1305.51,-992 1311.51,-998 1311.51,-1004 1311.51,-1004 1311.51,-1016 1311.51,-1016 1311.51,-1022 1305.51,-1028 1299.51,-1028"/>
<text text-anchor="middle" x="1284.51" y="-1006.3" font-family="Times,serif" font-size="14.00">开始</text>
</g>
<!-- existT -->
<g id="node29" class="node">
<title>existT</title>
<polygon fill="none" stroke="black" points="1284.51,-941 1224.62,-905 1284.51,-869 1344.41,-905 1284.51,-941"/>
<text text-anchor="middle" x="1284.51" y="-901.3" font-family="Times,serif" font-size="14.00">合集存在?</text>
</g>
<!-- startT&#45;&gt;existT -->
<g id="edge31" class="edge">
<title>startT:s&#45;&gt;existT</title>
<path fill="none" stroke="blue" d="M1284.51,-992C1284.51,-978.81 1284.51,-964.47 1284.51,-951.36"/>
<polygon fill="blue" stroke="blue" points="1288.02,-951.15 1284.51,-941.15 1281.02,-951.15 1288.02,-951.15"/>
<text text-anchor="middle" x="1294.01" y="-962.8" font-family="Times,serif" font-size="14.00">yes</text>
</g>
<!-- successT -->
<g id="node27" class="node">
<title>successT</title>
<path fill="none" stroke="black" d="M1392.51,-554C1392.51,-554 1362.51,-554 1362.51,-554 1356.51,-554 1350.51,-548 1350.51,-542 1350.51,-542 1350.51,-530 1350.51,-530 1350.51,-524 1356.51,-518 1362.51,-518 1362.51,-518 1392.51,-518 1392.51,-518 1398.51,-518 1404.51,-524 1404.51,-530 1404.51,-530 1404.51,-542 1404.51,-542 1404.51,-548 1398.51,-554 1392.51,-554"/>
<text text-anchor="middle" x="1377.51" y="-532.3" font-family="Times,serif" font-size="14.00">成功</text>
</g>
<!-- failT -->
<g id="node28" class="node">
<title>failT</title>
<path fill="none" stroke="black" d="M1235.51,-554C1235.51,-554 1205.51,-554 1205.51,-554 1199.51,-554 1193.51,-548 1193.51,-542 1193.51,-542 1193.51,-530 1193.51,-530 1193.51,-524 1199.51,-518 1205.51,-518 1205.51,-518 1235.51,-518 1235.51,-518 1241.51,-518 1247.51,-524 1247.51,-530 1247.51,-530 1247.51,-542 1247.51,-542 1247.51,-548 1241.51,-554 1235.51,-554"/>
<text text-anchor="middle" x="1220.51" y="-532.3" font-family="Times,serif" font-size="14.00">失败</text>
</g>
<!-- existT&#45;&gt;failT -->
<g id="edge35" class="edge">
<title>existT:w&#45;&gt;failT</title>
<path fill="none" stroke="red" d="M1223.51,-905C1155.35,-905 1198.73,-649.35 1215.07,-564.21"/>
<polygon fill="red" stroke="red" points="1218.53,-564.74 1217,-554.26 1211.66,-563.4 1218.53,-564.74"/>
<text text-anchor="middle" x="1198.51" y="-716.8" font-family="Times,serif" font-size="14.00">no</text>
</g>
<!-- accessT -->
<g id="node30" class="node">
<title>accessT</title>
<polygon fill="none" stroke="black" points="1308.51,-818 1220.41,-782 1308.51,-746 1396.62,-782 1308.51,-818"/>
<text text-anchor="middle" x="1308.51" y="-778.3" font-family="Times,serif" font-size="14.00">Author拥有合集?</text>
</g>
<!-- existT&#45;&gt;accessT -->
<g id="edge32" class="edge">
<title>existT:s&#45;&gt;accessT</title>
<path fill="none" stroke="blue" d="M1284.51,-869C1284.51,-853.51 1288.17,-837.01 1292.63,-822.64"/>
<polygon fill="blue" stroke="blue" points="1295.98,-823.67 1295.81,-813.08 1289.34,-821.46 1295.98,-823.67"/>
<text text-anchor="middle" x="1298.01" y="-839.8" font-family="Times,serif" font-size="14.00">yes</text>
</g>
<!-- accessT&#45;&gt;failT -->
<g id="edge36" class="edge">
<title>accessT:w&#45;&gt;failT</title>
<path fill="none" stroke="red" d="M1219.51,-782C1214.12,-782 1217.9,-628.29 1219.7,-564.37"/>
<polygon fill="red" stroke="red" points="1223.21,-564.32 1220,-554.23 1216.21,-564.12 1223.21,-564.32"/>
<text text-anchor="middle" x="1224.51" y="-655.3" font-family="Times,serif" font-size="14.00">no</text>
</g>
<!-- inT -->
<g id="node31" class="node">
<title>inT</title>
<polygon fill="none" stroke="black" points="1377.51,-695 1252.78,-659 1377.51,-623 1502.25,-659 1377.51,-695"/>
<text text-anchor="middle" x="1377.51" y="-655.3" font-family="Times,serif" font-size="14.00">置顶 Post 已经在合集中?</text>
</g>
<!-- accessT&#45;&gt;inT -->
<g id="edge33" class="edge">
<title>accessT:s&#45;&gt;inT</title>
<path fill="none" stroke="blue" d="M1308.51,-746C1308.51,-725.3 1320.83,-706.74 1335.05,-692.21"/>
<polygon fill="blue" stroke="blue" points="1337.8,-694.42 1342.61,-684.98 1332.96,-689.36 1337.8,-694.42"/>
<text text-anchor="middle" x="1328.01" y="-716.8" font-family="Times,serif" font-size="14.00">yes</text>
</g>
<!-- inT&#45;&gt;successT -->
<g id="edge34" class="edge">
<title>inT:s&#45;&gt;successT</title>
<path fill="none" stroke="blue" d="M1377.51,-623C1377.51,-603.4 1377.51,-581.3 1377.51,-564.4"/>
<polygon fill="blue" stroke="blue" points="1381.02,-564.13 1377.51,-554.13 1374.02,-564.13 1381.02,-564.13"/>
<text text-anchor="middle" x="1387.01" y="-593.8" font-family="Times,serif" font-size="14.00">yes</text>
</g>
<!-- inT&#45;&gt;failT -->
<g id="edge37" class="edge">
<title>inT:w&#45;&gt;failT</title>
<path fill="none" stroke="red" d="M1251.51,-659C1246.65,-659 1233.57,-600.06 1226.05,-564.11"/>
<polygon fill="red" stroke="red" points="1229.45,-563.3 1224,-554.22 1222.6,-564.72 1229.45,-563.3"/>
<text text-anchor="middle" x="1240.51" y="-593.8" font-family="Times,serif" font-size="14.00">no</text>
</g>
<!-- startU -->
<g id="node32" class="node">
<title>startU</title>
<path fill="none" stroke="black" d="M1649.51,-1028C1649.51,-1028 1619.51,-1028 1619.51,-1028 1613.51,-1028 1607.51,-1022 1607.51,-1016 1607.51,-1016 1607.51,-1004 1607.51,-1004 1607.51,-998 1613.51,-992 1619.51,-992 1619.51,-992 1649.51,-992 1649.51,-992 1655.51,-992 1661.51,-998 1661.51,-1004 1661.51,-1004 1661.51,-1016 1661.51,-1016 1661.51,-1022 1655.51,-1028 1649.51,-1028"/>
<text text-anchor="middle" x="1634.51" y="-1006.3" font-family="Times,serif" font-size="14.00">开始</text>
</g>
<!-- existU -->
<g id="node35" class="node">
<title>existU</title>
<polygon fill="none" stroke="black" points="1634.51,-941 1574.62,-905 1634.51,-869 1694.41,-905 1634.51,-941"/>
<text text-anchor="middle" x="1634.51" y="-901.3" font-family="Times,serif" font-size="14.00">合集存在?</text>
</g>
<!-- startU&#45;&gt;existU -->
<g id="edge38" class="edge">
<title>startU&#45;&gt;existU</title>
<path fill="none" stroke="blue" d="M1634.51,-991.99C1634.51,-980.96 1634.51,-966.01 1634.51,-951.68"/>
<polygon fill="blue" stroke="blue" points="1638.02,-951.41 1634.51,-941.41 1631.02,-951.41 1638.02,-951.41"/>
<text text-anchor="middle" x="1644.01" y="-962.8" font-family="Times,serif" font-size="14.00">yes</text>
</g>
<!-- successU -->
<g id="node33" class="node">
<title>successU</title>
<path fill="none" stroke="black" d="M1679.51,-677C1679.51,-677 1649.51,-677 1649.51,-677 1643.51,-677 1637.51,-671 1637.51,-665 1637.51,-665 1637.51,-653 1637.51,-653 1637.51,-647 1643.51,-641 1649.51,-641 1649.51,-641 1679.51,-641 1679.51,-641 1685.51,-641 1691.51,-647 1691.51,-653 1691.51,-653 1691.51,-665 1691.51,-665 1691.51,-671 1685.51,-677 1679.51,-677"/>
<text text-anchor="middle" x="1664.51" y="-655.3" font-family="Times,serif" font-size="14.00">成功</text>
</g>
<!-- failU -->
<g id="node34" class="node">
<title>failU</title>
<path fill="none" stroke="black" d="M1578.51,-677C1578.51,-677 1548.51,-677 1548.51,-677 1542.51,-677 1536.51,-671 1536.51,-665 1536.51,-665 1536.51,-653 1536.51,-653 1536.51,-647 1542.51,-641 1548.51,-641 1548.51,-641 1578.51,-641 1578.51,-641 1584.51,-641 1590.51,-647 1590.51,-653 1590.51,-653 1590.51,-665 1590.51,-665 1590.51,-671 1584.51,-677 1578.51,-677"/>
<text text-anchor="middle" x="1563.51" y="-655.3" font-family="Times,serif" font-size="14.00">失败</text>
</g>
<!-- existU&#45;&gt;failU -->
<g id="edge41" class="edge">
<title>existU:w&#45;&gt;failU</title>
<path fill="none" stroke="red" d="M1573.51,-905C1487.02,-905 1531.53,-750.66 1553.57,-686.98"/>
<polygon fill="red" stroke="red" points="1556.99,-687.82 1557.02,-677.23 1550.39,-685.49 1556.99,-687.82"/>
<text text-anchor="middle" x="1542.51" y="-778.3" font-family="Times,serif" font-size="14.00">no</text>
</g>
<!-- accessU -->
<g id="node36" class="node">
<title>accessU</title>
<polygon fill="none" stroke="black" points="1664.51,-818 1576.41,-782 1664.51,-746 1752.62,-782 1664.51,-818"/>
<text text-anchor="middle" x="1664.51" y="-778.3" font-family="Times,serif" font-size="14.00">Author拥有合集?</text>
</g>
<!-- existU&#45;&gt;accessU -->
<g id="edge39" class="edge">
<title>existU&#45;&gt;accessU</title>
<path fill="none" stroke="blue" d="M1642.09,-873.47C1645.73,-858.76 1650.16,-840.9 1654.11,-824.95"/>
<polygon fill="blue" stroke="blue" points="1657.62,-825.34 1656.63,-814.79 1650.83,-823.66 1657.62,-825.34"/>
<text text-anchor="middle" x="1660.01" y="-839.8" font-family="Times,serif" font-size="14.00">yes</text>
</g>
<!-- accessU&#45;&gt;successU -->
<g id="edge40" class="edge">
<title>accessU&#45;&gt;successU</title>
<path fill="none" stroke="blue" d="M1664.51,-745.68C1664.51,-726.96 1664.51,-704.33 1664.51,-687.03"/>
<polygon fill="blue" stroke="blue" points="1668.02,-687.03 1664.51,-677.03 1661.02,-687.03 1668.02,-687.03"/>
<text text-anchor="middle" x="1674.01" y="-716.8" font-family="Times,serif" font-size="14.00">yes</text>
</g>
<!-- accessU&#45;&gt;failU -->
<g id="edge42" class="edge">
<title>accessU:w&#45;&gt;failU</title>
<path fill="none" stroke="red" d="M1575.51,-782C1566.09,-782 1563.96,-723.57 1563.55,-687.58"/>
<polygon fill="red" stroke="red" points="1567.04,-687.19 1563.47,-677.22 1560.04,-687.25 1567.04,-687.19"/>
<text text-anchor="middle" x="1571.51" y="-716.8" font-family="Times,serif" font-size="14.00">no</text>
</g>
</g>
</svg>
