<?xml version="1.0" encoding="UTF-8" standalone="no"?>
<!DOCTYPE svg PUBLIC "-//W3C//DTD SVG 1.1//EN"
 "http://www.w3.org/Graphics/SVG/1.1/DTD/svg11.dtd">
<!-- Generated by graphviz version 2.44.0 (20200408.0750)
 -->
<!-- Title: compilation Pages: 1 -->
<svg width="1315pt" height="773pt"
 viewBox="0.00 0.00 1315.00 773.00" xmlns="http://www.w3.org/2000/svg" xmlns:xlink="http://www.w3.org/1999/xlink">
<g id="graph0" class="graph" transform="scale(1 1) rotate(0) translate(4 769)">
<title>compilation</title>
<polygon fill="white" stroke="transparent" points="-4,4 -4,-769 1311,-769 1311,4 -4,4"/>
<text text-anchor="middle" x="653.5" y="-13" font-family="Times,serif" font-size="30.00">合集操作语义_v1</text>
<g id="clust1" class="cluster">
<title>cluster_create</title>
<polygon fill="none" stroke="black" points="8,-49 8,-757 268,-757 268,-49 8,-49"/>
<text text-anchor="middle" x="138" y="-737" font-family="Times,serif" font-size="20.00">创建合集</text>
</g>
<g id="clust2" class="cluster">
<title>cluster_modify</title>
<polygon fill="none" stroke="black" points="276,-207.5 276,-757 528,-757 528,-207.5 276,-207.5"/>
<text text-anchor="middle" x="402" y="-737" font-family="Times,serif" font-size="20.00">修改合集</text>
</g>
<g id="clust3" class="cluster">
<title>cluster_drop</title>
<polygon fill="none" stroke="black" points="536,-330.5 536,-750.5 812,-750.5 812,-330.5 536,-330.5"/>
<text text-anchor="middle" x="674" y="-730.5" font-family="Times,serif" font-size="20.00">用户删除合集</text>
</g>
<g id="clust4" class="cluster">
<title>cluster_censorcallback</title>
<polygon fill="none" stroke="black" points="820,-446 820,-750.5 1018,-750.5 1018,-446 820,-446"/>
<text text-anchor="middle" x="919" y="-730.5" font-family="Times,serif" font-size="20.00">合集审核回调</text>
</g>
<g id="clust5" class="cluster">
<title>cluster_valid</title>
<polygon fill="none" stroke="black" points="1026,-330.5 1026,-757 1286,-757 1286,-330.5 1026,-330.5"/>
<text text-anchor="middle" x="1156" y="-737" font-family="Times,serif" font-size="20.00">合集参数是否合规</text>
</g>
<!-- startC -->
<g id="node1" class="node">
<title>startC</title>
<path fill="none" stroke="black" d="M149,-719C149,-719 119,-719 119,-719 113,-719 107,-713 107,-707 107,-707 107,-695 107,-695 107,-689 113,-683 119,-683 119,-683 149,-683 149,-683 155,-683 161,-689 161,-695 161,-695 161,-707 161,-707 161,-713 155,-719 149,-719"/>
<text text-anchor="middle" x="134" y="-697.3" font-family="Times,serif" font-size="14.00">开始</text>
</g>
<!-- access -->
<g id="node2" class="node">
<title>access</title>
<polygon fill="none" stroke="black" points="134,-632 16.2,-596 134,-560 251.8,-596 134,-632"/>
<text text-anchor="middle" x="134" y="-592.3" font-family="Times,serif" font-size="14.00">Author 是否有合集权限</text>
</g>
<!-- startC&#45;&gt;access -->
<g id="edge1" class="edge">
<title>startC&#45;&gt;access</title>
<path fill="none" stroke="blue" d="M134,-682.99C134,-671.96 134,-657.01 134,-642.68"/>
<polygon fill="blue" stroke="blue" points="137.5,-642.41 134,-632.41 130.5,-642.41 137.5,-642.41"/>
</g>
<!-- valid -->
<g id="node3" class="node">
<title>valid</title>
<polygon fill="none" stroke="black" points="115,-509 17.49,-473 115,-437 212.51,-473 115,-509"/>
<text text-anchor="middle" x="115" y="-469.3" font-family="Times,serif" font-size="14.00">合集参数是否合规</text>
</g>
<!-- access&#45;&gt;valid -->
<g id="edge2" class="edge">
<title>access&#45;&gt;valid</title>
<path fill="none" stroke="blue" d="M128.71,-561.29C126.57,-547.68 124.07,-531.79 121.8,-517.33"/>
<polygon fill="blue" stroke="blue" points="125.21,-516.44 120.2,-507.11 118.29,-517.53 125.21,-516.44"/>
<text text-anchor="middle" x="134.5" y="-530.8" font-family="Times,serif" font-size="14.00">yes</text>
</g>
<!-- fail -->
<g id="node8" class="node">
<title>fail</title>
<path fill="none" stroke="black" d="M252.33,-238.5C252.33,-238.5 193.67,-238.5 193.67,-238.5 189.83,-238.5 186,-234.67 186,-230.83 186,-230.83 186,-223.17 186,-223.17 186,-219.33 189.83,-215.5 193.67,-215.5 193.67,-215.5 252.33,-215.5 252.33,-215.5 256.17,-215.5 260,-219.33 260,-223.17 260,-223.17 260,-230.83 260,-230.83 260,-234.67 256.17,-238.5 252.33,-238.5"/>
<text text-anchor="middle" x="223" y="-223.3" font-family="Times,serif" font-size="14.00">创建失败</text>
</g>
<!-- access&#45;&gt;fail -->
<g id="edge7" class="edge">
<title>access:e&#45;&gt;fail</title>
<path fill="none" stroke="red" d="M253,-596C255.85,-596 264.1,-497.06 241,-314 238.16,-291.53 232.56,-266.2 228.36,-248.88"/>
<polygon fill="red" stroke="red" points="231.65,-247.62 225.84,-238.77 224.86,-249.32 231.65,-247.62"/>
<text text-anchor="middle" x="258" y="-407.8" font-family="Times,serif" font-size="14.00">no</text>
</g>
<!-- censor -->
<g id="node4" class="node">
<title>censor</title>
<polygon fill="none" stroke="black" points="101,-386 24.77,-350 101,-314 177.23,-350 101,-386"/>
<text text-anchor="middle" x="101" y="-346.3" font-family="Times,serif" font-size="14.00">是否通过初审</text>
</g>
<!-- valid&#45;&gt;censor -->
<g id="edge3" class="edge">
<title>valid&#45;&gt;censor</title>
<path fill="none" stroke="blue" d="M111.1,-438.29C109.54,-424.79 107.72,-409.05 106.05,-394.69"/>
<polygon fill="blue" stroke="blue" points="109.51,-394.06 104.88,-384.52 102.55,-394.86 109.51,-394.06"/>
<text text-anchor="middle" x="117.5" y="-407.8" font-family="Times,serif" font-size="14.00">yes</text>
</g>
<!-- valid&#45;&gt;fail -->
<g id="edge9" class="edge">
<title>valid:e&#45;&gt;fail</title>
<path fill="none" stroke="red" d="M214,-473C225.17,-473 224.07,-308.14 223.31,-248.89"/>
<polygon fill="red" stroke="red" points="226.81,-248.48 223.17,-238.53 219.81,-248.57 226.81,-248.48"/>
<text text-anchor="middle" x="230" y="-346.3" font-family="Times,serif" font-size="14.00">no</text>
</g>
<!-- public -->
<g id="node5" class="node">
<title>public</title>
<polygon fill="none" stroke="black" points="92,-263 15.77,-227 92,-191 168.23,-227 92,-263"/>
<text text-anchor="middle" x="92" y="-223.3" font-family="Times,serif" font-size="14.00">是否需要公开</text>
</g>
<!-- censor&#45;&gt;public -->
<g id="edge4" class="edge">
<title>censor&#45;&gt;public</title>
<path fill="none" stroke="blue" d="M98.47,-314.97C97.48,-301.7 96.34,-286.31 95.29,-272.19"/>
<polygon fill="blue" stroke="blue" points="98.78,-271.9 94.54,-262.19 91.79,-272.42 98.78,-271.9"/>
<text text-anchor="middle" x="106.5" y="-284.8" font-family="Times,serif" font-size="14.00">yes</text>
</g>
<!-- censor&#45;&gt;fail -->
<g id="edge8" class="edge">
<title>censor:e&#45;&gt;fail</title>
<path fill="none" stroke="red" d="M178,-350C193.74,-350 188.39,-295.71 194,-281 198.47,-269.27 205.11,-256.91 210.9,-247.09"/>
<polygon fill="red" stroke="red" points="213.89,-248.91 216.1,-238.55 207.91,-245.27 213.89,-248.91"/>
<text text-anchor="middle" x="201" y="-284.8" font-family="Times,serif" font-size="14.00">no</text>
</g>
<!-- setPublic -->
<g id="node6" class="node">
<title>setPublic</title>
<polygon fill="none" stroke="black" points="141,-140 25,-140 25,-117 141,-117 141,-140"/>
<text text-anchor="middle" x="83" y="-124.8" font-family="Times,serif" font-size="14.00">设置状态为公开</text>
</g>
<!-- public&#45;&gt;setPublic -->
<g id="edge5" class="edge">
<title>public&#45;&gt;setPublic</title>
<path fill="none" stroke="blue" d="M88.85,-192.25C87.55,-178.27 86.08,-162.49 84.94,-150.26"/>
<polygon fill="blue" stroke="blue" points="88.41,-149.8 84,-140.17 81.44,-150.45 88.41,-149.8"/>
<text text-anchor="middle" x="95.5" y="-161.8" font-family="Times,serif" font-size="14.00">yes</text>
</g>
<!-- success -->
<g id="node7" class="node">
<title>success</title>
<path fill="none" stroke="black" d="M181.33,-80C181.33,-80 122.67,-80 122.67,-80 118.83,-80 115,-76.17 115,-72.33 115,-72.33 115,-64.67 115,-64.67 115,-60.83 118.83,-57 122.67,-57 122.67,-57 181.33,-57 181.33,-57 185.17,-57 189,-60.83 189,-64.67 189,-64.67 189,-72.33 189,-72.33 189,-76.17 185.17,-80 181.33,-80"/>
<text text-anchor="middle" x="152" y="-64.8" font-family="Times,serif" font-size="14.00">创建成功</text>
</g>
<!-- public&#45;&gt;success -->
<g id="edge10" class="edge">
<title>public:e&#45;&gt;success</title>
<path fill="none" stroke="red" d="M169,-227C182.63,-227 164.96,-132.55 156.29,-89.93"/>
<polygon fill="red" stroke="red" points="159.7,-89.17 154.25,-80.08 152.85,-90.58 159.7,-89.17"/>
<text text-anchor="middle" x="172" y="-124.8" font-family="Times,serif" font-size="14.00">no</text>
</g>
<!-- setPublic&#45;&gt;success -->
<g id="edge6" class="edge">
<title>setPublic&#45;&gt;success</title>
<path fill="none" stroke="blue" d="M95.66,-116.86C105.67,-108.44 119.87,-96.51 131.5,-86.73"/>
<polygon fill="blue" stroke="blue" points="134.02,-89.18 139.42,-80.07 129.52,-83.83 134.02,-89.18"/>
</g>
<!-- startM -->
<g id="node9" class="node">
<title>startM</title>
<path fill="none" stroke="black" d="M417,-719C417,-719 387,-719 387,-719 381,-719 375,-713 375,-707 375,-707 375,-695 375,-695 375,-689 381,-683 387,-683 387,-683 417,-683 417,-683 423,-683 429,-689 429,-695 429,-695 429,-707 429,-707 429,-713 423,-719 417,-719"/>
<text text-anchor="middle" x="402" y="-697.3" font-family="Times,serif" font-size="14.00">开始</text>
</g>
<!-- accessM -->
<g id="node10" class="node">
<title>accessM</title>
<polygon fill="none" stroke="black" points="402,-632 284.2,-596 402,-560 519.8,-596 402,-632"/>
<text text-anchor="middle" x="402" y="-592.3" font-family="Times,serif" font-size="14.00">Author 是否拥有该合集</text>
</g>
<!-- startM&#45;&gt;accessM -->
<g id="edge11" class="edge">
<title>startM&#45;&gt;accessM</title>
<path fill="none" stroke="blue" d="M402,-682.99C402,-671.96 402,-657.01 402,-642.68"/>
<polygon fill="blue" stroke="blue" points="405.5,-642.41 402,-632.41 398.5,-642.41 405.5,-642.41"/>
</g>
<!-- validM -->
<g id="node12" class="node">
<title>validM</title>
<polygon fill="none" stroke="black" points="382,-509 284.49,-473 382,-437 479.51,-473 382,-509"/>
<text text-anchor="middle" x="382" y="-469.3" font-family="Times,serif" font-size="14.00">合集参数是否合规</text>
</g>
<!-- accessM&#45;&gt;validM -->
<g id="edge12" class="edge">
<title>accessM&#45;&gt;validM</title>
<path fill="none" stroke="blue" d="M396.48,-561.62C394.23,-547.99 391.6,-532.06 389.2,-517.54"/>
<polygon fill="blue" stroke="blue" points="392.58,-516.57 387.5,-507.28 385.68,-517.71 392.58,-516.57"/>
<text text-anchor="middle" x="402.5" y="-530.8" font-family="Times,serif" font-size="14.00">yes</text>
</g>
<!-- failM -->
<g id="node14" class="node">
<title>failM</title>
<path fill="none" stroke="black" d="M502.33,-238.5C502.33,-238.5 443.67,-238.5 443.67,-238.5 439.83,-238.5 436,-234.67 436,-230.83 436,-230.83 436,-223.17 436,-223.17 436,-219.33 439.83,-215.5 443.67,-215.5 443.67,-215.5 502.33,-215.5 502.33,-215.5 506.17,-215.5 510,-219.33 510,-223.17 510,-223.17 510,-230.83 510,-230.83 510,-234.67 506.17,-238.5 502.33,-238.5"/>
<text text-anchor="middle" x="473" y="-223.3" font-family="Times,serif" font-size="14.00">修改失败</text>
</g>
<!-- accessM&#45;&gt;failM -->
<g id="edge15" class="edge">
<title>accessM:e&#45;&gt;failM</title>
<path fill="none" stroke="red" d="M521,-596C526.09,-596 532.72,-498.44 498,-314 493.69,-291.1 485.86,-265.53 480.1,-248.27"/>
<polygon fill="red" stroke="red" points="483.38,-247.03 476.84,-238.7 476.75,-249.29 483.38,-247.03"/>
<text text-anchor="middle" x="521" y="-407.8" font-family="Times,serif" font-size="14.00">no</text>
</g>
<!-- censorM -->
<g id="node11" class="node">
<title>censorM</title>
<polygon fill="none" stroke="black" points="361,-386 284.77,-350 361,-314 437.23,-350 361,-386"/>
<text text-anchor="middle" x="361" y="-346.3" font-family="Times,serif" font-size="14.00">是否通过初审</text>
</g>
<!-- successM -->
<g id="node13" class="node">
<title>successM</title>
<path fill="none" stroke="black" d="M390.33,-238.5C390.33,-238.5 331.67,-238.5 331.67,-238.5 327.83,-238.5 324,-234.67 324,-230.83 324,-230.83 324,-223.17 324,-223.17 324,-219.33 327.83,-215.5 331.67,-215.5 331.67,-215.5 390.33,-215.5 390.33,-215.5 394.17,-215.5 398,-219.33 398,-223.17 398,-223.17 398,-230.83 398,-230.83 398,-234.67 394.17,-238.5 390.33,-238.5"/>
<text text-anchor="middle" x="361" y="-223.3" font-family="Times,serif" font-size="14.00">修改成功</text>
</g>
<!-- censorM&#45;&gt;successM -->
<g id="edge14" class="edge">
<title>censorM&#45;&gt;successM</title>
<path fill="none" stroke="blue" d="M361,-313.68C361,-292.63 361,-266.65 361,-248.84"/>
<polygon fill="blue" stroke="blue" points="364.5,-248.7 361,-238.7 357.5,-248.7 364.5,-248.7"/>
<text text-anchor="middle" x="370.5" y="-284.8" font-family="Times,serif" font-size="14.00">yes</text>
</g>
<!-- censorM&#45;&gt;failM -->
<g id="edge17" class="edge">
<title>censorM:e&#45;&gt;failM</title>
<path fill="none" stroke="red" d="M438,-350C453.74,-350 449.56,-296.1 454,-281 457.2,-270.12 461.4,-258.21 465.04,-248.45"/>
<polygon fill="red" stroke="red" points="468.41,-249.43 468.69,-238.84 461.87,-246.94 468.41,-249.43"/>
<text text-anchor="middle" x="461" y="-284.8" font-family="Times,serif" font-size="14.00">no</text>
</g>
<!-- validM&#45;&gt;censorM -->
<g id="edge13" class="edge">
<title>validM&#45;&gt;censorM</title>
<path fill="none" stroke="blue" d="M376.26,-438.94C373.83,-424.95 370.98,-408.48 368.39,-393.6"/>
<polygon fill="blue" stroke="blue" points="371.82,-392.86 366.66,-383.6 364.92,-394.06 371.82,-392.86"/>
<text text-anchor="middle" x="381.5" y="-407.8" font-family="Times,serif" font-size="14.00">yes</text>
</g>
<!-- validM&#45;&gt;failM -->
<g id="edge16" class="edge">
<title>validM:e&#45;&gt;failM</title>
<path fill="none" stroke="red" d="M481,-473C486.6,-473 477.59,-307.45 474.2,-248.52"/>
<polygon fill="red" stroke="red" points="477.7,-248.31 473.62,-238.53 470.71,-248.71 477.7,-248.31"/>
<text text-anchor="middle" x="487" y="-346.3" font-family="Times,serif" font-size="14.00">no</text>
</g>
<!-- exist -->
<g id="node15" class="node">
<title>exist</title>
<polygon fill="none" stroke="black" points="691,-632 635.56,-596 691,-560 746.44,-596 691,-632"/>
<text text-anchor="middle" x="691" y="-592.3" font-family="Times,serif" font-size="14.00">合集存在</text>
</g>
<!-- own -->
<g id="node16" class="node">
<title>own</title>
<polygon fill="none" stroke="black" points="628,-509 544.35,-473 628,-437 711.65,-473 628,-509"/>
<text text-anchor="middle" x="628" y="-469.3" font-family="Times,serif" font-size="14.00">Author拥有合集</text>
</g>
<!-- exist&#45;&gt;own -->
<g id="edge19" class="edge">
<title>exist&#45;&gt;own</title>
<path fill="none" stroke="blue" d="M677.33,-568.74C668.66,-552.1 657.31,-530.29 647.68,-511.79"/>
<polygon fill="blue" stroke="blue" points="650.69,-510 642.97,-502.74 644.48,-513.23 650.69,-510"/>
<text text-anchor="middle" x="672.5" y="-530.8" font-family="Times,serif" font-size="14.00">yes</text>
</g>
<!-- 静默返回 -->
<g id="node20" class="node">
<title>静默返回</title>
<path fill="none" stroke="black" d="M796.33,-484.5C796.33,-484.5 737.67,-484.5 737.67,-484.5 733.83,-484.5 730,-480.67 730,-476.83 730,-476.83 730,-469.17 730,-469.17 730,-465.33 733.83,-461.5 737.67,-461.5 737.67,-461.5 796.33,-461.5 796.33,-461.5 800.17,-461.5 804,-465.33 804,-469.17 804,-469.17 804,-476.83 804,-476.83 804,-480.67 800.17,-484.5 796.33,-484.5"/>
<text text-anchor="middle" x="767" y="-469.3" font-family="Times,serif" font-size="14.00">静默返回</text>
</g>
<!-- exist&#45;&gt;静默返回 -->
<g id="edge22" class="edge">
<title>exist:e&#45;&gt;静默返回</title>
<path fill="none" stroke="red" d="M747,-596C787.48,-596 779.17,-529.79 771.99,-494.92"/>
<polygon fill="red" stroke="red" points="775.33,-493.84 769.76,-484.83 768.5,-495.35 775.33,-493.84"/>
<text text-anchor="middle" x="784" y="-530.8" font-family="Times,serif" font-size="14.00">no</text>
</g>
<!-- 成功 -->
<g id="node18" class="node">
<title>成功</title>
<path fill="none" stroke="black" d="M647.33,-361.5C647.33,-361.5 608.67,-361.5 608.67,-361.5 604.83,-361.5 601,-357.67 601,-353.83 601,-353.83 601,-346.17 601,-346.17 601,-342.33 604.83,-338.5 608.67,-338.5 608.67,-338.5 647.33,-338.5 647.33,-338.5 651.17,-338.5 655,-342.33 655,-346.17 655,-346.17 655,-353.83 655,-353.83 655,-357.67 651.17,-361.5 647.33,-361.5"/>
<text text-anchor="middle" x="628" y="-346.3" font-family="Times,serif" font-size="14.00">成功</text>
</g>
<!-- own&#45;&gt;成功 -->
<g id="edge20" class="edge">
<title>own&#45;&gt;成功</title>
<path fill="none" stroke="blue" d="M628,-436.68C628,-415.63 628,-389.65 628,-371.84"/>
<polygon fill="blue" stroke="blue" points="631.5,-371.7 628,-361.7 624.5,-371.7 631.5,-371.7"/>
<text text-anchor="middle" x="637.5" y="-407.8" font-family="Times,serif" font-size="14.00">yes</text>
</g>
<!-- 失败 -->
<g id="node19" class="node">
<title>失败</title>
<path fill="none" stroke="black" d="M731.33,-361.5C731.33,-361.5 692.67,-361.5 692.67,-361.5 688.83,-361.5 685,-357.67 685,-353.83 685,-353.83 685,-346.17 685,-346.17 685,-342.33 688.83,-338.5 692.67,-338.5 692.67,-338.5 731.33,-338.5 731.33,-338.5 735.17,-338.5 739,-342.33 739,-346.17 739,-346.17 739,-353.83 739,-353.83 739,-357.67 735.17,-361.5 731.33,-361.5"/>
<text text-anchor="middle" x="712" y="-346.3" font-family="Times,serif" font-size="14.00">失败</text>
</g>
<!-- own&#45;&gt;失败 -->
<g id="edge21" class="edge">
<title>own:e&#45;&gt;失败</title>
<path fill="none" stroke="red" d="M713,-473C722.99,-473 717.72,-406.79 714.25,-371.92"/>
<polygon fill="red" stroke="red" points="717.72,-371.41 713.21,-361.83 710.75,-372.13 717.72,-371.41"/>
<text text-anchor="middle" x="724" y="-407.8" font-family="Times,serif" font-size="14.00">no</text>
</g>
<!-- startD -->
<g id="node17" class="node">
<title>startD</title>
<path fill="none" stroke="black" d="M710.33,-712.5C710.33,-712.5 671.67,-712.5 671.67,-712.5 667.83,-712.5 664,-708.67 664,-704.83 664,-704.83 664,-697.17 664,-697.17 664,-693.33 667.83,-689.5 671.67,-689.5 671.67,-689.5 710.33,-689.5 710.33,-689.5 714.17,-689.5 718,-693.33 718,-697.17 718,-697.17 718,-704.83 718,-704.83 718,-708.67 714.17,-712.5 710.33,-712.5"/>
<text text-anchor="middle" x="691" y="-697.3" font-family="Times,serif" font-size="14.00">开始</text>
</g>
<!-- startD&#45;&gt;exist -->
<g id="edge18" class="edge">
<title>startD&#45;&gt;exist</title>
<path fill="none" stroke="blue" d="M691,-689.37C691,-678.19 691,-659.86 691,-642.46"/>
<polygon fill="blue" stroke="blue" points="694.5,-642.39 691,-632.39 687.5,-642.39 694.5,-642.39"/>
</g>
<!-- existR -->
<g id="node21" class="node">
<title>existR</title>
<polygon fill="none" stroke="black" points="887,-632 831.56,-596 887,-560 942.44,-596 887,-632"/>
<text text-anchor="middle" x="887" y="-592.3" font-family="Times,serif" font-size="14.00">合集存在</text>
</g>
<!-- failR -->
<g id="node23" class="node">
<title>failR</title>
<path fill="none" stroke="black" d="M874.33,-484.5C874.33,-484.5 835.67,-484.5 835.67,-484.5 831.83,-484.5 828,-480.67 828,-476.83 828,-476.83 828,-469.17 828,-469.17 828,-465.33 831.83,-461.5 835.67,-461.5 835.67,-461.5 874.33,-461.5 874.33,-461.5 878.17,-461.5 882,-465.33 882,-469.17 882,-469.17 882,-476.83 882,-476.83 882,-480.67 878.17,-484.5 874.33,-484.5"/>
<text text-anchor="middle" x="855" y="-469.3" font-family="Times,serif" font-size="14.00">失败</text>
</g>
<!-- existR&#45;&gt;failR -->
<g id="edge25" class="edge">
<title>existR&#45;&gt;failR</title>
<path fill="none" stroke="red" d="M879.09,-565.09C873.28,-543.11 865.53,-513.81 860.41,-494.45"/>
<polygon fill="red" stroke="red" points="863.74,-493.35 857.8,-484.58 856.97,-495.14 863.74,-493.35"/>
<text text-anchor="middle" x="879" y="-530.8" font-family="Times,serif" font-size="14.00">no</text>
</g>
<!-- 操作成功:\n公开/个见/删除 -->
<g id="node24" class="node">
<title>操作成功:\n公开/个见/删除</title>
<path fill="none" stroke="black" d="M998,-492C998,-492 912,-492 912,-492 906,-492 900,-486 900,-480 900,-480 900,-466 900,-466 900,-460 906,-454 912,-454 912,-454 998,-454 998,-454 1004,-454 1010,-460 1010,-466 1010,-466 1010,-480 1010,-480 1010,-486 1004,-492 998,-492"/>
<text text-anchor="middle" x="955" y="-476.8" font-family="Times,serif" font-size="14.00">操作成功:</text>
<text text-anchor="middle" x="955" y="-461.8" font-family="Times,serif" font-size="14.00">公开/个见/删除</text>
</g>
<!-- existR&#45;&gt;操作成功:\n公开/个见/删除 -->
<g id="edge24" class="edge">
<title>existR&#45;&gt;操作成功:\n公开/个见/删除</title>
<path fill="none" stroke="blue" d="M901.42,-569.34C912.71,-549.25 928.38,-521.38 939.85,-500.96"/>
<polygon fill="blue" stroke="blue" points="942.95,-502.59 944.8,-492.16 936.85,-499.16 942.95,-502.59"/>
<text text-anchor="middle" x="934.5" y="-530.8" font-family="Times,serif" font-size="14.00">yes</text>
</g>
<!-- startR -->
<g id="node22" class="node">
<title>startR</title>
<path fill="none" stroke="black" d="M906.33,-712.5C906.33,-712.5 867.67,-712.5 867.67,-712.5 863.83,-712.5 860,-708.67 860,-704.83 860,-704.83 860,-697.17 860,-697.17 860,-693.33 863.83,-689.5 867.67,-689.5 867.67,-689.5 906.33,-689.5 906.33,-689.5 910.17,-689.5 914,-693.33 914,-697.17 914,-697.17 914,-704.83 914,-704.83 914,-708.67 910.17,-712.5 906.33,-712.5"/>
<text text-anchor="middle" x="887" y="-697.3" font-family="Times,serif" font-size="14.00">开始</text>
</g>
<!-- startR&#45;&gt;existR -->
<g id="edge23" class="edge">
<title>startR&#45;&gt;existR</title>
<path fill="none" stroke="blue" d="M887,-689.37C887,-678.19 887,-659.86 887,-642.46"/>
<polygon fill="blue" stroke="blue" points="890.5,-642.39 887,-632.39 883.5,-642.39 890.5,-642.39"/>
</g>
<!-- title -->
<g id="node25" class="node">
<title>title</title>
<polygon fill="none" stroke="black" points="1172,-632 1093.99,-596 1172,-560 1250.01,-596 1172,-632"/>
<text text-anchor="middle" x="1172" y="-599.8" font-family="Times,serif" font-size="14.00">标题合规吗?</text>
<text text-anchor="middle" x="1172" y="-584.8" font-family="Times,serif" font-size="14.00">字符数&lt;30</text>
</g>
<!-- desc -->
<g id="node26" class="node">
<title>desc</title>
<polygon fill="none" stroke="black" points="1131,-509 1033.7,-473 1131,-437 1228.3,-473 1131,-509"/>
<text text-anchor="middle" x="1131" y="-476.8" font-family="Times,serif" font-size="14.00">描述合规吗?</text>
<text text-anchor="middle" x="1131" y="-461.8" font-family="Times,serif" font-size="14.00"> 为空/字符数&lt;80</text>
</g>
<!-- title&#45;&gt;desc -->
<g id="edge27" class="edge">
<title>title&#45;&gt;desc</title>
<path fill="none" stroke="blue" d="M1161.65,-564.47C1156.59,-549.51 1150.41,-531.28 1144.93,-515.12"/>
<polygon fill="blue" stroke="blue" points="1148.15,-513.71 1141.63,-505.37 1141.52,-515.96 1148.15,-513.71"/>
<text text-anchor="middle" x="1162.5" y="-530.8" font-family="Times,serif" font-size="14.00">yes</text>
</g>
<!-- bad -->
<g id="node27" class="node">
<title>bad</title>
<path fill="none" stroke="black" d="M1259.33,-361.5C1259.33,-361.5 1220.67,-361.5 1220.67,-361.5 1216.83,-361.5 1213,-357.67 1213,-353.83 1213,-353.83 1213,-346.17 1213,-346.17 1213,-342.33 1216.83,-338.5 1220.67,-338.5 1220.67,-338.5 1259.33,-338.5 1259.33,-338.5 1263.17,-338.5 1267,-342.33 1267,-346.17 1267,-346.17 1267,-353.83 1267,-353.83 1267,-357.67 1263.17,-361.5 1259.33,-361.5"/>
<text text-anchor="middle" x="1240" y="-346.3" font-family="Times,serif" font-size="14.00">无效</text>
</g>
<!-- title&#45;&gt;bad -->
<g id="edge29" class="edge">
<title>title:e&#45;&gt;bad</title>
<path fill="none" stroke="red" d="M1251,-596C1340.97,-596 1274.92,-429.07 1249.11,-370.79"/>
<polygon fill="red" stroke="red" points="1252.24,-369.21 1244.94,-361.53 1245.86,-372.08 1252.24,-369.21"/>
<text text-anchor="middle" x="1300" y="-469.3" font-family="Times,serif" font-size="14.00">no</text>
</g>
<!-- desc&#45;&gt;bad -->
<g id="edge30" class="edge">
<title>desc:e&#45;&gt;bad</title>
<path fill="none" stroke="red" d="M1229,-473C1239.03,-473 1240.25,-406.79 1240.2,-371.92"/>
<polygon fill="red" stroke="red" points="1243.7,-371.81 1240.15,-361.83 1236.7,-371.84 1243.7,-371.81"/>
<text text-anchor="middle" x="1246" y="-407.8" font-family="Times,serif" font-size="14.00">no</text>
</g>
<!-- good -->
<g id="node28" class="node">
<title>good</title>
<path fill="none" stroke="black" d="M1150.33,-361.5C1150.33,-361.5 1111.67,-361.5 1111.67,-361.5 1107.83,-361.5 1104,-357.67 1104,-353.83 1104,-353.83 1104,-346.17 1104,-346.17 1104,-342.33 1107.83,-338.5 1111.67,-338.5 1111.67,-338.5 1150.33,-338.5 1150.33,-338.5 1154.17,-338.5 1158,-342.33 1158,-346.17 1158,-346.17 1158,-353.83 1158,-353.83 1158,-357.67 1154.17,-361.5 1150.33,-361.5"/>
<text text-anchor="middle" x="1131" y="-346.3" font-family="Times,serif" font-size="14.00">有效</text>
</g>
<!-- desc&#45;&gt;good -->
<g id="edge28" class="edge">
<title>desc&#45;&gt;good</title>
<path fill="none" stroke="blue" d="M1131,-436.68C1131,-415.63 1131,-389.65 1131,-371.84"/>
<polygon fill="blue" stroke="blue" points="1134.5,-371.7 1131,-361.7 1127.5,-371.7 1134.5,-371.7"/>
<text text-anchor="middle" x="1140.5" y="-407.8" font-family="Times,serif" font-size="14.00">yes</text>
</g>
<!-- v_start -->
<g id="node29" class="node">
<title>v_start</title>
<path fill="none" stroke="black" d="M1187,-719C1187,-719 1157,-719 1157,-719 1151,-719 1145,-713 1145,-707 1145,-707 1145,-695 1145,-695 1145,-689 1151,-683 1157,-683 1157,-683 1187,-683 1187,-683 1193,-683 1199,-689 1199,-695 1199,-695 1199,-707 1199,-707 1199,-713 1193,-719 1187,-719"/>
<text text-anchor="middle" x="1172" y="-697.3" font-family="Times,serif" font-size="14.00">开始</text>
</g>
<!-- v_start&#45;&gt;title -->
<g id="edge26" class="edge">
<title>v_start&#45;&gt;title</title>
<path fill="none" stroke="blue" d="M1172,-682.99C1172,-671.96 1172,-657.01 1172,-642.68"/>
<polygon fill="blue" stroke="blue" points="1175.5,-642.41 1172,-632.41 1168.5,-642.41 1175.5,-642.41"/>
<text text-anchor="middle" x="1181.5" y="-653.8" font-family="Times,serif" font-size="14.00">yes</text>
</g>
</g>
</svg>
