<?xml version="1.0" encoding="UTF-8" standalone="no"?>
<!DOCTYPE svg PUBLIC "-//W3C//DTD SVG 1.1//EN"
 "http://www.w3.org/Graphics/SVG/1.1/DTD/svg11.dtd">
<!-- Generated by graphviz version 2.44.0 (20200408.0750)
 -->
<!-- Pages: 1 -->
<svg width="268pt" height="527pt"
 viewBox="0.00 0.00 267.50 527.00" xmlns="http://www.w3.org/2000/svg" xmlns:xlink="http://www.w3.org/1999/xlink">
<g id="graph0" class="graph" transform="scale(1 1) rotate(0) translate(4 523)">
<polygon fill="white" stroke="transparent" points="-4,4 -4,-523 263.5,-523 263.5,4 -4,4"/>
<text text-anchor="middle" x="129.75" y="-10" font-family="Times,serif" font-size="20.00">构建流程</text>
<!-- flow -->
<g id="node1" class="node">
<title>flow</title>
<polygon fill="lightblue" stroke="black" points="13.5,-472.5 13.5,-518.5 134.5,-518.5 134.5,-472.5 13.5,-472.5"/>
<text text-anchor="middle" x="74" y="-503.3" font-family="Times,serif" font-size="14.00">业务共识&#45;工作流</text>
<polyline fill="none" stroke="black" points="13.5,-495.5 134.5,-495.5 "/>
<text text-anchor="middle" x="43.5" y="-480.3" font-family="Times,serif" font-size="14.00">创建</text>
<polyline fill="none" stroke="black" points="73.5,-472.5 73.5,-495.5 "/>
<text text-anchor="middle" x="104" y="-480.3" font-family="Times,serif" font-size="14.00">删除</text>
</g>
<!-- app -->
<g id="node2" class="node">
<title>app</title>
<polygon fill="orange" stroke="black" points="0,-374.5 0,-420.5 148,-420.5 148,-374.5 0,-374.5"/>
<text text-anchor="middle" x="74" y="-405.3" font-family="Times,serif" font-size="14.00">应用程序</text>
<polyline fill="none" stroke="black" points="0,-397.5 148,-397.5 "/>
<text text-anchor="middle" x="37" y="-382.3" font-family="Times,serif" font-size="14.00">创建接口</text>
<polyline fill="none" stroke="black" points="74,-374.5 74,-397.5 "/>
<text text-anchor="middle" x="111" y="-382.3" font-family="Times,serif" font-size="14.00">删除接口</text>
</g>
<!-- flow&#45;&gt;app -->
<g id="edge1" class="edge">
<title>flow&#45;&gt;app</title>
<path fill="none" stroke="black" d="M74,-472.23C74,-460 74,-444.59 74,-431.03"/>
<polygon fill="black" stroke="black" points="77.5,-430.64 74,-420.64 70.5,-430.64 77.5,-430.64"/>
<text text-anchor="middle" x="88.5" y="-442.8" font-family="Times,serif" font-size="14.00">推导</text>
</g>
<!-- e -->
<g id="node5" class="node">
<title>e</title>
<polygon fill="lightgreen" stroke="black" points="14,-212.5 14,-248.5 68,-248.5 68,-212.5 14,-212.5"/>
<text text-anchor="middle" x="41" y="-226.8" font-family="Times,serif" font-size="14.00">实体</text>
</g>
<!-- app&#45;&gt;e -->
<g id="edge2" class="edge">
<title>app:f1&#45;&gt;e</title>
<path fill="none" stroke="black" d="M37,-374C37,-357.53 35.44,-353.46 35,-337 34.56,-320.56 34.28,-316.43 35,-300 35.59,-286.44 36.84,-271.41 38.05,-258.9"/>
<polygon fill="black" stroke="black" points="41.56,-258.95 39.08,-248.64 34.6,-258.24 41.56,-258.95"/>
<text text-anchor="middle" x="113.5" y="-314.8" font-family="Times,serif" font-size="14.00">通过Factory/Builder实例化</text>
</g>
<!-- v -->
<g id="node6" class="node">
<title>v</title>
<polygon fill="lightgreen" stroke="black" points="200.5,-300.5 200.5,-336.5 259.5,-336.5 259.5,-300.5 200.5,-300.5"/>
<text text-anchor="middle" x="230" y="-314.8" font-family="Times,serif" font-size="14.00">值对象</text>
</g>
<!-- app&#45;&gt;v -->
<g id="edge3" class="edge">
<title>app:f1&#45;&gt;v</title>
<path fill="none" stroke="black" d="M37,-374C37,-305.77 121.04,-357.88 186,-337 187.61,-336.48 189.25,-335.93 190.9,-335.36"/>
<polygon fill="black" stroke="black" points="192.18,-338.62 200.38,-331.91 189.78,-332.05 192.18,-338.62"/>
</g>
<!-- repo -->
<g id="node3" class="node">
<title>repo</title>
<polygon fill="orange" stroke="black" points="19.5,-30.5 19.5,-76.5 100.5,-76.5 100.5,-30.5 19.5,-30.5"/>
<text text-anchor="middle" x="60" y="-61.3" font-family="Times,serif" font-size="14.00">资源库</text>
<polyline fill="none" stroke="black" points="19.5,-53.5 100.5,-53.5 "/>
<text text-anchor="middle" x="41" y="-38.3" font-family="Times,serif" font-size="14.00">store</text>
<polyline fill="none" stroke="black" points="62.5,-30.5 62.5,-53.5 "/>
<text text-anchor="middle" x="81.5" y="-38.3" font-family="Times,serif" font-size="14.00">find</text>
</g>
<!-- ser -->
<g id="node4" class="node">
<title>ser</title>
<polygon fill="orange" stroke="black" points="4,-128.5 4,-174.5 78,-174.5 78,-128.5 4,-128.5"/>
<text text-anchor="middle" x="41" y="-159.3" font-family="Times,serif" font-size="14.00">领域服务</text>
<polyline fill="none" stroke="black" points="4,-151.5 78,-151.5 "/>
<text text-anchor="middle" x="41" y="-136.3" font-family="Times,serif" font-size="14.00">审核</text>
</g>
<!-- ser&#45;&gt;repo -->
<g id="edge6" class="edge">
<title>ser&#45;&gt;repo:s</title>
<path fill="none" stroke="black" d="M27.52,-128.44C11.41,-100.32 -11.11,-54.09 8.05,-43.64"/>
<polygon fill="black" stroke="black" points="8.96,-47.03 18,-41.5 7.49,-40.19 8.96,-47.03"/>
<text text-anchor="middle" x="39.5" y="-98.8" font-family="Times,serif" font-size="14.00">持久化</text>
</g>
<!-- e&#45;&gt;ser -->
<g id="edge5" class="edge">
<title>e&#45;&gt;ser</title>
<path fill="none" stroke="black" d="M41,-212.41C41,-204.21 41,-194.11 41,-184.56"/>
<polygon fill="black" stroke="black" points="44.5,-184.52 41,-174.52 37.5,-184.52 44.5,-184.52"/>
</g>
<!-- v&#45;&gt;e -->
<g id="edge4" class="edge">
<title>v&#45;&gt;e</title>
<path fill="none" stroke="black" d="M200.47,-304.06C167.21,-288.93 113.13,-264.32 77.32,-248.02"/>
<polygon fill="black" stroke="black" points="78.73,-244.82 68.18,-243.87 75.83,-251.19 78.73,-244.82"/>
<text text-anchor="middle" x="176" y="-270.8" font-family="Times,serif" font-size="14.00">校验行为</text>
</g>
</g>
</svg>
