<?xml version="1.0" encoding="UTF-8" standalone="no"?>
<!DOCTYPE svg PUBLIC "-//W3C//DTD SVG 1.1//EN"
 "http://www.w3.org/Graphics/SVG/1.1/DTD/svg11.dtd">
<!-- Generated by graphviz version 2.44.0 (20200408.0750)
 -->
<!-- Title: processVs Pages: 1 -->
<svg width="526pt" height="529pt"
 viewBox="0.00 0.00 526.00 528.93" xmlns="http://www.w3.org/2000/svg" xmlns:xlink="http://www.w3.org/1999/xlink">
<g id="graph0" class="graph" transform="scale(1 1) rotate(0) translate(4 524.93)">
<title>processVs</title>
<polygon fill="white" stroke="transparent" points="-4,4 -4,-524.93 522,-524.93 522,4 -4,4"/>
<g id="clust1" class="cluster">
<title>cluster_old</title>
<polygon fill="none" stroke="black" points="8,-81 8,-500.46 174,-500.46 174,-81 8,-81"/>
<text text-anchor="middle" x="91" y="-485.26" font-family="Times,serif" font-size="14.00">现有流程</text>
</g>
<g id="clust5" class="cluster">
<title>cluster_ddd</title>
<polygon fill="none" stroke="black" points="182,-8 182,-512.93 510,-512.93 510,-8 182,-8"/>
<text text-anchor="middle" x="346" y="-497.73" font-family="Times,serif" font-size="14.00">DDD流程</text>
</g>
<!-- p_pub -->
<g id="node1" class="node">
<title>p_pub</title>
<polygon fill="none" stroke="black" points="166,-350.25 92,-350.25 92,-314.25 166,-314.25 166,-350.25"/>
<text text-anchor="middle" x="129" y="-328.55" font-family="Times,serif" font-size="14.00">需求宣讲</text>
</g>
<!-- d_est -->
<g id="node2" class="node">
<title>d_est</title>
<polygon fill="none" stroke="black" points="144,-232 70,-232 70,-196 144,-196 144,-232"/>
<text text-anchor="middle" x="107" y="-210.3" font-family="Times,serif" font-size="14.00">需求评估</text>
</g>
<!-- p_pub&#45;&gt;d_est -->
<g id="edge1" class="edge">
<title>p_pub&#45;&gt;d_est</title>
<path fill="none" stroke="black" d="M125.75,-314.09C122.16,-295.12 116.33,-264.3 112.12,-242.06"/>
<polygon fill="black" stroke="black" points="115.56,-241.4 110.26,-232.22 108.68,-242.7 115.56,-241.4"/>
</g>
<!-- end0 -->
<g id="node3" class="node">
<title>end0</title>
<ellipse fill="none" stroke="black" cx="107" cy="-107" rx="48.19" ry="18"/>
<text text-anchor="middle" x="107" y="-103.3" font-family="Times,serif" font-size="14.00">进入研发</text>
</g>
<!-- d_est&#45;&gt;end0 -->
<g id="edge4" class="edge">
<title>d_est&#45;&gt;end0</title>
<path fill="none" stroke="black" d="M107,-195.66C107,-179.22 107,-154.28 107,-135.19"/>
<polygon fill="black" stroke="black" points="110.5,-135.02 107,-125.02 103.5,-135.02 110.5,-135.02"/>
</g>
<!-- pm -->
<g id="node4" class="node">
<title>pm</title>
<ellipse fill="yellow" stroke="black" cx="129" cy="-440.21" rx="29.5" ry="29.5"/>
<text text-anchor="middle" x="129" y="-436.51" font-family="Times,serif" font-size="14.00">产品</text>
</g>
<!-- pm&#45;&gt;p_pub -->
<g id="edge2" class="edge">
<title>pm&#45;&gt;p_pub:n</title>
<path fill="none" stroke="black" d="M129,-410.69C129,-393.48 129,-371.1 129,-351.25"/>
</g>
<!-- dev -->
<g id="node5" class="node">
<title>dev</title>
<ellipse fill="yellow" stroke="black" cx="45" cy="-332.25" rx="29.5" ry="29.5"/>
<text text-anchor="middle" x="45" y="-328.55" font-family="Times,serif" font-size="14.00">研发</text>
</g>
<!-- dev&#45;&gt;d_est -->
<g id="edge3" class="edge">
<title>dev&#45;&gt;d_est:w</title>
<path fill="none" stroke="black" d="M39.77,-303.46C34.78,-268.79 32.64,-214 69,-214"/>
</g>
<!-- p_dis -->
<g id="node6" class="node">
<title>p_dis</title>
<polygon fill="none" stroke="black" points="409,-350.25 307,-350.25 307,-314.25 409,-314.25 409,-350.25"/>
<text text-anchor="middle" x="358" y="-328.55" font-family="Times,serif" font-size="14.00">讨论产品需求</text>
</g>
<!-- done -->
<g id="node11" class="node">
<title>done</title>
<polygon fill="lightblue" stroke="black" points="347,-252 267,-214 347,-176 427,-214 347,-252"/>
<text text-anchor="middle" x="347" y="-217.8" font-family="Times,serif" font-size="14.00">是否已经</text>
<text text-anchor="middle" x="347" y="-202.8" font-family="Times,serif" font-size="14.00">达成共识?</text>
</g>
<!-- p_dis&#45;&gt;done -->
<g id="edge9" class="edge">
<title>p_dis&#45;&gt;done:n</title>
<path fill="none" stroke="black" d="M354.21,-314.03C351.52,-300.48 348.21,-280.8 347.26,-262.01"/>
<polygon fill="black" stroke="black" points="350.76,-261.9 347,-252 343.76,-262.09 350.76,-261.9"/>
</g>
<!-- m_pm -->
<g id="node7" class="node">
<title>m_pm</title>
<ellipse fill="yellow" stroke="black" cx="473" cy="-440.21" rx="29.5" ry="29.5"/>
<text text-anchor="middle" x="473" y="-436.51" font-family="Times,serif" font-size="14.00">产品</text>
</g>
<!-- m_pm&#45;&gt;p_dis -->
<g id="edge5" class="edge">
<title>m_pm&#45;&gt;p_dis</title>
<path fill="none" stroke="black" d="M453.73,-417.63C447.87,-411.31 441.3,-404.5 435,-398.49 416.99,-381.33 395.27,-363.13 379.49,-350.33"/>
</g>
<!-- m_dev -->
<g id="node8" class="node">
<title>m_dev</title>
<ellipse fill="yellow" stroke="black" cx="397" cy="-440.21" rx="29.5" ry="29.5"/>
<text text-anchor="middle" x="397" y="-436.51" font-family="Times,serif" font-size="14.00">研发</text>
</g>
<!-- m_dev&#45;&gt;p_dis -->
<g id="edge6" class="edge">
<title>m_dev&#45;&gt;p_dis</title>
<path fill="none" stroke="black" d="M387.16,-412.47C379.98,-392.98 370.47,-367.14 364.3,-350.35"/>
</g>
<!-- m_user -->
<g id="node9" class="node">
<title>m_user</title>
<ellipse fill="yellow" stroke="black" cx="321" cy="-440.21" rx="29.5" ry="29.5"/>
<text text-anchor="middle" x="321" y="-436.51" font-family="Times,serif" font-size="14.00">用户</text>
</g>
<!-- m_user&#45;&gt;p_dis -->
<g id="edge7" class="edge">
<title>m_user&#45;&gt;p_dis</title>
<path fill="none" stroke="black" d="M330.34,-412.47C337.14,-392.98 346.17,-367.14 352.03,-350.35"/>
</g>
<!-- m_rel -->
<g id="node10" class="node">
<title>m_rel</title>
<ellipse fill="yellow" stroke="black" cx="232" cy="-440.21" rx="41.94" ry="41.94"/>
<text text-anchor="middle" x="232" y="-444.01" font-family="Times,serif" font-size="14.00">其他</text>
<text text-anchor="middle" x="232" y="-429.01" font-family="Times,serif" font-size="14.00">相关方</text>
</g>
<!-- m_rel&#45;&gt;p_dis -->
<g id="edge8" class="edge">
<title>m_rel&#45;&gt;p_dis</title>
<path fill="none" stroke="black" d="M263.47,-412.75C286.65,-393.25 317.5,-367.31 337.55,-350.44"/>
</g>
<!-- done&#45;&gt;p_dis -->
<g id="edge10" class="edge">
<title>done:e&#45;&gt;p_dis:e</title>
<path fill="none" stroke="black" d="M428,-214C477.63,-214 465.24,-317.06 420.11,-330.75"/>
<polygon fill="black" stroke="black" points="419.38,-327.32 410,-332.25 420.4,-334.25 419.38,-327.32"/>
<text text-anchor="middle" x="466.5" y="-273.8" font-family="Times,serif" font-size="14.00">否</text>
</g>
<!-- end -->
<g id="node12" class="node">
<title>end</title>
<path fill="grey" stroke="black" d="M372,-125C372,-125 322,-125 322,-125 316,-125 310,-119 310,-113 310,-113 310,-101 310,-101 310,-95 316,-89 322,-89 322,-89 372,-89 372,-89 378,-89 384,-95 384,-101 384,-101 384,-113 384,-113 384,-119 378,-125 372,-125"/>
<text text-anchor="middle" x="347" y="-103.3" font-family="Times,serif" font-size="14.00">输出共识</text>
</g>
<!-- done&#45;&gt;end -->
<g id="edge11" class="edge">
<title>done&#45;&gt;end</title>
<path fill="none" stroke="black" d="M347,-175.98C347,-162.56 347,-147.65 347,-135.22"/>
<polygon fill="black" stroke="black" points="350.5,-135.04 347,-125.04 343.5,-135.04 350.5,-135.04"/>
<text text-anchor="middle" x="354.5" y="-146.8" font-family="Times,serif" font-size="14.00">是</text>
</g>
<!-- ddd -->
<g id="node13" class="node">
<title>ddd</title>
<ellipse fill="none" stroke="black" cx="347" cy="-34" rx="48.19" ry="18"/>
<text text-anchor="middle" x="347" y="-30.3" font-family="Times,serif" font-size="14.00">进入研发</text>
</g>
<!-- end&#45;&gt;ddd -->
<g id="edge12" class="edge">
<title>end&#45;&gt;ddd</title>
<path fill="none" stroke="black" d="M347,-88.81C347,-80.79 347,-71.05 347,-62.07"/>
<polygon fill="black" stroke="black" points="350.5,-62.03 347,-52.03 343.5,-62.03 350.5,-62.03"/>
</g>
</g>
</svg>
